<svg width="360" height="918" viewBox="0 0 360 918" fill="none" xmlns="http://www.w3.org/2000/svg">
<path d="M208.339 460.176C207.063 462.976 205.567 463.363 203.662 461.281C202.775 460.312 202.026 459.552 200.411 459.426C192.464 458.808 190.588 459.831 187.66 467.583C184.549 475.817 181.841 484.301 176.776 491.551C172.72 497.356 170.66 504.67 164.268 508.762C159.662 511.71 160.977 517.73 157.495 521.535C153.453 517.972 150.928 522.342 148.015 523.769C145.107 525.194 146.875 527.909 147.459 530.366C149.464 538.812 151.057 547.35 147.73 555.884C147.136 557.407 147.6 558.748 148.111 560.212C150.027 565.696 149.41 570.813 144.933 574.834C142.707 576.833 141.994 579.129 142.024 581.908C142.058 585.108 140.908 586.919 137.359 587.748C131.812 589.043 128.967 592.774 131.083 598.899C127.415 598.808 128.631 595.433 126.449 594.546C123.288 594.648 120.525 596.773 117.379 597.741C107.115 600.9 97.275 599.182 88.1214 594.44C84.1537 592.384 82.8337 592.726 81.1872 596.631C78.5928 602.785 76.6954 609.103 75.4361 615.627C74.5478 620.229 76.5814 622.777 81.1352 623.909C92.2142 626.663 103.102 625.786 114.138 623.379C123.525 621.332 131.772 616.58 140.665 613.407C140.82 613.352 140.982 613.278 141.104 613.171C149.055 606.203 158.411 601.075 167.086 595.268C175.405 589.699 183.096 582.081 194.284 580.531C198.506 579.946 203.708 579.296 208.097 576.221C204.846 574.395 202.858 571.137 199.053 570.507C198.586 570.43 197.988 570.182 197.749 569.818C191.824 560.778 181.748 554.102 181.026 542.147C180.793 538.285 180.913 534.659 179.642 530.812C178.617 527.71 181.577 524.648 183.066 521.817C189.986 508.658 207.689 505.152 219.501 511.162C227.539 515.251 231.272 524.897 228.215 533.317C226.687 537.529 221.269 540.557 215.966 540.163C211.75 539.85 207.6 535.471 206.723 530.343C206.561 529.394 206.609 528.409 206.56 527.44C200.36 527.79 195.681 532.249 196.191 537.802C196.865 545.146 198.995 552.114 203.592 558.094C203.985 558.605 204.537 559.222 205.105 559.335C211.184 560.553 214.768 566.422 220.065 568.128C228.527 570.854 236.024 576.352 245.151 576.98C247.939 577.172 250.186 577.967 252.302 579.917C256.433 583.723 261.678 585.397 267.16 587.012C268.701 584.34 267.118 582.249 266.047 580.455C260.933 571.888 255.595 563.453 250.34 554.97C249.634 553.83 248.787 552.621 249.409 551.254C251.719 546.179 249.021 541.995 247.071 537.697C246.59 536.636 245.476 535.459 246.083 534.497C249.02 529.84 247.802 524.363 247.853 519.658C247.901 515.217 247.221 511.942 251.346 509.127C252.204 508.541 252.229 505.812 251.756 504.358C249.915 498.702 253.644 496.126 257.683 495.342C263.329 494.245 265.52 490.096 267.942 486.12C269.432 483.673 271.576 482.836 273.633 481.336C279.719 476.899 285.864 476.455 292.925 477.662C296.386 478.253 300.148 477.524 303.819 477.628C314.282 477.923 322.623 483.673 329.008 490.213C338.914 500.359 342.961 513.644 340.508 528.283C339.038 537.059 334.692 544.481 330.151 551.871C329.373 553.136 328.379 553.75 327.007 554.038C325.714 554.31 324.103 554.31 323.218 555.092C315.055 562.304 305.225 559.464 296.215 558.939C285.065 558.289 274.916 542.907 277.795 532.936C280.842 522.385 291.802 519.466 299.846 527.028C301.593 528.67 301.893 530.327 300.52 532.314C298.966 534.562 299.454 536.689 301.757 537.776C305.918 539.741 310.506 541.029 314.498 537.778C320.14 533.183 324.137 527.482 322.773 519.631C320.941 509.091 316.303 499.562 306.201 495.576C295.025 491.167 283.362 491.277 273.661 500.572C269.513 504.546 267.195 509.438 264.43 514.391C260.354 521.692 259.347 528.779 260.342 536.208C261.834 547.36 266.943 557.336 272.638 566.994C280.052 579.567 288.429 591.603 294.443 604.963C296.109 608.665 298.8 610.524 302.54 611.13C300.486 620.387 302.715 621.429 308.148 623.102C308.807 626.42 306.253 630.2 308.436 633.206C313.859 640.672 313.457 649.646 315.403 657.995C318.239 670.165 319.493 682.457 317.058 694.888C316.763 696.397 316.868 697.801 317.538 699.254C318.767 701.922 318.229 704.49 316.488 706.762C313.53 710.623 313.377 714.696 315.445 718.941C316.743 721.606 316.41 723.557 314.428 726.107C311.302 730.128 308.794 734.712 306.543 739.312C299.763 753.16 288.546 763.041 277.082 772.678C273.504 775.685 269.39 777.623 271.743 783.787C273.024 787.143 270.862 789.618 266.664 788.505C265.086 788.087 263.856 788.344 262.611 789.57C256.899 795.195 256.864 795.159 250.986 790.616C247.834 792.01 245.756 795.01 242.507 796.497C239.257 797.985 236.106 793.562 232.706 797.181C235.679 800.829 235.778 806.199 240.697 809.002C242.687 810.136 242.592 813.36 243.064 815.718C243.517 817.984 243.56 820.331 243.821 823.037C248.732 822.631 248.371 825.465 248.87 829.277C249.582 834.712 251.049 840.107 251.795 845.634C252.746 852.683 253.627 859.677 251.801 866.657C251.178 869.036 251.261 870.881 253.324 872.404C253.85 872.792 254.772 873.503 254.679 873.742C253.403 877.026 252.214 880.386 250.49 883.438C249.704 884.828 248.172 884.305 244.791 882.151C238.645 885.925 245.221 890.403 244.218 895.057C238.624 894.386 236.495 897.964 233.942 902.305C230.82 907.615 224.92 910.575 219.583 913.571C215.705 915.746 212.076 918.38 206.789 917.867C202.977 917.497 199.907 918.072 197.655 913.986C196.056 911.084 184.967 911.223 181.86 914.109C178.218 917.492 175.777 917.915 174.081 912.532C173.594 910.989 171.88 910.812 170.534 910.148C164.997 907.414 160.079 903.519 154.013 901.699C152.695 901.304 151.318 899.425 150.914 897.968C149.6 893.22 147.056 889.464 143.436 886.185C140.586 883.603 139.358 880.18 139.818 876.237C139.911 875.438 139.911 874.38 139.475 873.808C136.616 870.068 134.177 866.497 139.114 862.419C139.942 861.735 139.092 860.046 138.237 859.298C134.642 856.147 136.334 853.378 138.841 850.826C141.014 848.616 142.152 846.615 140.596 843.351C139.279 840.589 141.24 838.428 143.74 837.48C146.493 836.435 147.983 834.633 149.109 832.031C150.256 829.379 152.535 827.604 154.996 826.094C163.239 821.038 172.485 818.484 181.646 820.689C190.14 822.734 198.956 825.8 204.067 834.27C206.376 838.096 209.606 841.26 211.992 845.095C214.757 849.539 215.484 854.064 213.78 858.821C212.757 861.676 211.932 864.184 215.397 866.727C208.724 868.817 202.278 870.43 205.55 878.855C203.625 879.83 202.785 878.443 201.745 877.787C198.944 876.022 196.316 875.293 193.751 878.266C193.165 878.945 191.834 879.722 191.189 879.491C186.333 877.758 181.03 876.894 177.164 873.043C174.129 870.019 174.174 866.314 174.607 862.331C175.096 857.827 177.892 855.732 181.576 854.058C186.426 851.853 187.122 847.109 183.26 843.398C175.609 836.048 160.73 838.643 156.706 848.449C154.135 854.714 154.248 861.634 155.893 868.15C157.995 876.482 162.559 883.3 168.498 889.826C173.328 895.134 179.903 895.586 185.015 899.336C185.142 899.43 185.325 899.452 185.486 899.494C186.723 899.819 204.106 897.047 205.275 896.428C207.773 895.105 210.258 893.735 212.84 892.594C217.404 890.579 220.268 886.399 224.378 883.675C228.237 881.117 227.477 876.097 223.934 872.899C224.794 871.378 225.536 871.42 226.419 871.638C230.275 872.59 233.463 869.853 232.227 866.173C231.345 863.548 232.775 861.935 233.145 859.832C234.425 852.56 240.28 845.358 234.287 837.682C233.925 837.218 233.671 836.262 233.902 835.803C237.418 828.801 231.384 824.316 229.168 819.027C227.05 813.973 222.598 810.174 217.962 807.224C214.683 805.138 210.725 805.108 206.859 806.414C203.489 807.553 200.296 807.667 198.179 803.945C196.655 801.267 194.159 802.04 191.933 802.602C188.725 803.411 185.748 803.498 182.868 801.491C179.655 799.252 176.361 800.349 173.441 802.051C170.374 803.838 167.676 803.476 165.11 801.475C161.979 799.033 158.746 798.035 154.897 799.619C153.242 800.301 151.114 800.263 150.598 798.389C149.576 794.671 147.263 793.527 143.722 793.231C141.986 793.086 140.617 791.554 139.328 790.155C136.407 786.986 132.779 787.508 130.965 791.359C128.143 797.348 127.479 803.474 131.445 809.219C133.086 811.596 133.069 813.34 131.967 816.015C130.419 819.771 131.669 824.148 130.105 828.123C124.322 842.823 116.401 851.263 100.899 850.178C92.0098 849.555 82.772 838.684 83.9508 829.901C84.6939 824.364 90.6213 818.738 96.1664 818.307C101.57 817.887 106.33 822.041 108.023 828.782C114.522 827.106 116.377 821.863 116.772 816.305C117.11 811.567 115.366 807.039 113.777 802.409C111.589 796.032 108.547 791.103 102.876 787.49C99.9276 785.611 102 781.921 101.154 779.19C96.0024 780.498 93.9046 779.086 90.2526 771.06C89.3162 769.003 88.5001 767.252 86.4819 766.116C85.1376 765.359 84.1006 764.045 84.0432 762.504C83.7016 753.323 78.2274 746.432 73.3788 739.451C70.2649 734.967 69.0648 729.811 66.6846 725.102C64.4511 720.683 63.1042 715.789 60.5337 711.476C59.7159 710.104 59.2534 708.709 59.9867 707.224C62.1053 702.932 59.6548 699.818 57.1399 696.933C55.7772 695.37 55.1168 693.839 54.5092 691.856C53.1519 687.427 53.0571 683.761 56.4748 680.089C57.604 678.876 57.5529 676.277 57.5175 674.321C57.406 668.168 57.0456 662.019 56.7815 655.869C56.7141 654.299 56.4078 652.834 54.6957 652.246C49.4438 650.442 51.4613 647.915 54.0247 645.395C57.797 641.686 59.427 637.469 57.2274 632.332C56.8507 631.453 56.202 629.975 55.6886 629.979C50.5684 630.02 50.0184 625.089 47.2217 622.667C40.5373 616.878 36.0496 609.525 30.733 602.688C24.7393 594.981 22.3886 586.359 19.8415 577.498C17.6651 569.927 17.649 562.44 18.149 554.523C18.5163 548.709 19.2444 543.681 21.7915 538.514C25.1686 531.663 26.2473 523.868 30.019 517.114C30.683 515.925 30.8949 514.381 29.5193 513.504C27.4519 512.186 25.4873 510.919 22.602 511.887C16.4299 513.957 10.3473 514.184 5.85977 508.277C3.86361 505.65 2.22907 502.746 0.466533 499.945C0.210017 499.537 -0.119214 498.847 0.0487168 498.548C3.15545 493.023 0.102168 485.872 4.12587 480.874C12.2573 470.775 21.7978 462.767 35.9672 463.373C51.0838 464.02 65.7912 482.03 57.8153 495.974C66.6754 493.799 74.7339 489.207 83.9916 489.878C86.4749 490.058 88.9857 489.896 91.4828 489.842C97.3513 489.714 97.3511 489.702 102.294 486.224C105.775 492.395 112.313 493.366 118.137 496.036C124.068 498.756 130.914 501.01 134.35 507.716C135.937 510.812 138.309 511.135 141.317 508.857C156.017 497.725 167.36 484.266 172.135 465.997C172.715 463.78 174.058 461.765 175.024 459.645C176.363 456.703 175.633 454.862 172.186 455.513C168.381 456.231 165.761 454.693 163.456 452.025C161.621 449.902 159.84 448.838 157.156 451.12C155.029 452.928 152.948 452.306 151.238 449.933C148.686 446.391 145.348 444.213 140.714 444.21C137.59 444.208 135.105 442.208 132.59 440.619C128.35 437.939 124.062 435.28 119.246 433.891C112.242 431.872 106.071 428.415 100.278 424.125C98.0568 422.479 95.8315 421.346 92.9493 423.013C90.4069 424.483 89.2868 422.622 88.7244 420.49C87.5577 416.067 84.5493 413.517 80.5175 411.752C75.3681 409.497 73.2084 404.263 69.6852 400.392C68.0229 398.566 66.8471 396.635 63.9017 396.22C60.361 395.722 59.0724 392.218 59.3227 389.389C59.6393 385.812 58.3124 383.465 55.8298 381.713C52.0061 379.016 53.1822 375.055 53.1761 371.436C48.9715 371.932 43.5414 367.737 42.6463 363.162C42.2155 360.96 41.4255 359.153 40.2858 357.32C38.8755 355.053 38.5214 352.679 40.294 350.34C42.9163 346.88 41.8874 343.88 39.0102 340.839C35.7778 342.409 32.7505 342.647 29.8927 339.862C26.1456 336.211 25.9552 334.044 29.5578 330.16C33.6657 325.73 33.9646 319.029 29.8078 314.505C27.7178 312.23 26.6941 309.852 26.7289 306.909C26.7721 303.257 25.0973 300.789 22.1921 298.57C16.8199 294.467 17.6388 289.96 23.9716 287.658C26.7866 286.635 28.3966 284.804 28.7171 281.859C29.0433 278.862 28.5497 275.995 25.6567 274.527C22.9113 273.134 21.3625 271.837 23.9797 268.991C24.7382 268.166 24.8414 267.057 24.1399 266.233C19.8284 261.168 22.6993 256.207 24.3074 251.254C25.2326 248.404 26.5542 245.673 27.3432 242.791C28.3871 238.978 29.1334 235.615 34.4218 235.407C37.7272 235.276 40.1902 227.752 38.1089 224.92C36.5127 222.747 37.1692 221.386 38.6693 219.716C40.5538 217.619 42.0824 215.177 44.0953 213.224C48.0468 209.391 46.9299 205.769 43.278 203.096C35.8034 197.626 32.2782 188.446 24.3125 183.508C22.8028 182.572 22.9569 180.543 22.2638 179.056C17.3973 168.616 14.5048 157.49 10.9729 146.589C10.4183 144.877 9.76072 142.891 10.1215 141.245C11.4903 134.999 10.6678 129.473 6.63711 124.294C4.81642 121.955 5.53108 119.074 7.63861 116.998C10.1924 114.483 10.5344 111.475 11.1477 108.089C13.0802 97.4214 16.418 87.019 21.9846 77.6929C26.6877 69.8134 32.1804 62.3466 37.8906 55.1467C41.9427 50.0374 47.7835 46.7546 53.3977 43.5218C56.3069 41.8466 59.1027 40.1814 61.4294 37.7661C61.7754 37.407 62.1171 36.8725 62.5382 36.7827C69.9523 35.2023 75.2498 28.6106 82.9891 27.9937C87.171 27.6604 86.333 24.1311 87.1386 22.1581C88.8906 21.1335 89.9106 21.8819 90.6251 22.7717C92.297 24.8537 94.1169 24.6958 96.3987 23.8481C106.265 20.1827 116.727 18.9492 126.912 16.5778C129.625 15.9462 132.08 16.6126 134.685 17.489C139.943 19.2582 141.81 17.6736 141.488 12.2581C141.404 10.8346 141.59 9.40324 143.243 9.13597C145.435 8.7815 147.03 10.3615 147.316 12.0687C148.148 17.0307 151.493 16.8408 155.159 16.6064C157.513 16.456 158.583 14.9202 159.685 13.1768C160.48 11.9189 161.5 10.6081 163.224 10.7871C165.313 11.0041 165.157 12.7769 165.204 14.2433C165.286 16.7876 166.991 17.3146 169.05 18.027C178.883 21.4289 189.455 21.0006 199.34 24.0801C207.597 26.6521 215.842 29.2846 224.188 31.5353C230.348 33.1965 236.762 35.8764 242.54 36.3285C248.472 36.7927 253.209 38.8106 258.555 40.2871C271.7 43.9178 285.107 47.0468 298.878 43.0888C300.124 42.7307 301.599 42.844 302.274 41.2348C302.372 39.2975 300.727 38.4828 299.477 37.4952C287.044 27.6741 288.305 12.6548 301.824 4.30126C316.591 -4.82333 337.149 2.71043 345.63 13.9334C356.063 27.7375 354.625 42.2388 349.076 56.9816C343.091 72.8834 331.079 83.4059 316.549 91.3893C311.062 94.4038 311.006 94.7928 316.059 98.6269C322.657 103.633 326.638 109.735 326.419 118.519C326.272 124.45 323.585 128.734 319.612 132.323C317.559 134.178 317.133 135.738 316.741 138.439C315.744 145.312 318.214 151.13 320.49 157.14C322.579 162.654 323.092 168.516 323.83 174.251C325.359 186.127 328.274 197.711 330.592 209.416C331.232 212.65 330.872 214.828 328.075 216.635C324.159 219.163 320.676 222.225 317.217 225.368C312.596 229.569 305.124 227.808 302.597 222.055C301.7 220.012 300.938 219.042 298.467 218.717C292.822 217.976 290.052 212.766 291.306 207.184C294.618 192.442 298.116 177.706 297.697 162.428C297.62 159.607 298.613 157.283 300.272 155.061C302.904 151.536 304.517 147.591 305.032 143.151C305.295 140.888 304.604 139.376 302.966 137.918C288.939 125.43 287.944 113.221 299.795 99.0991C298.714 97.4588 296.975 98.0486 295.789 98.4109C289.659 100.284 283.233 99.8101 277.016 101.004C274.049 101.573 271.145 101.581 268.997 104.252C267.497 106.117 265.631 105.72 263.669 104.441C258.136 100.835 252.131 99.7084 245.604 101.224C240.603 102.385 235.803 102.719 231.829 98.1779C230.061 96.1562 226.857 96.5145 224.388 95.5441C221.328 94.3419 219.456 95.8143 217.703 98.2187C216.813 99.4388 215.199 98.7508 213.99 98.1748C212.036 97.2444 210.128 96.2161 208.214 95.2045C201.697 91.7596 201.699 91.7554 199.044 98.7868C197.101 103.929 198.827 110.286 203.092 113.696C207.907 117.547 211.171 117.56 217.031 113.305C222.398 109.408 228.081 108.051 234.446 110.282C238.578 111.73 239.206 114.05 236.263 117.328C235.157 118.56 233.872 119.65 232.572 120.684C224.393 127.185 222.081 136.065 222.024 145.983C222.003 149.722 224.797 151.455 226.768 153.832C230.625 158.483 230.389 160.391 225.497 163.498C226.143 167.254 229.006 167.597 232.098 168.139C245.971 170.57 257.564 176.744 265.007 189.219C272.128 201.156 270.397 216.453 260.889 226.663C257.943 229.826 254.954 232.949 251.982 236.087C249.163 239.062 245.765 241.086 241.823 242.176C236.012 243.784 230.734 246.698 225.169 248.904C222.886 249.81 222.37 251.565 222.368 253.686C222.348 278.513 222.373 303.342 222.282 328.169C222.268 331.983 224.528 332.163 227.225 331.805C233.136 331.02 237.319 326.953 241.956 323.793C250.998 317.632 255.063 308.12 258.17 298.286C260.393 291.251 258.064 284.481 254.607 278.181C254.049 277.163 253.414 276.154 252.648 275.289C250.343 272.688 252.137 270.812 253.971 269.442C256.737 267.376 256.952 270.568 258.106 272.036C259.351 270.174 258.009 266.749 261.21 266.464C264.197 266.199 265.299 268.762 266.63 270.913C278.089 289.425 274.574 306.692 262.3 323.208C260.203 326.03 257.728 328.511 254.321 329.819C252.541 330.502 250.955 331.269 251.366 333.729C251.689 335.664 250.15 336.374 248.684 336.762C244.165 337.958 239.974 339.58 236.247 342.652C234.449 344.133 231.664 344.596 229.239 345.104C222.054 346.609 221.39 346.947 222.374 354.07C223.486 362.116 222.027 370.431 225.218 378.26C228.586 386.525 232.172 394.389 240.647 398.98C247.666 402.782 249.945 402.648 255.056 396.351C258.379 392.257 261.077 391.89 264.01 395.15C265.3 396.584 266.041 398.059 265.168 400.121C264.009 402.861 263.188 405.742 262.114 408.52C261.009 411.378 258.9 412.675 255.842 413.499C251.483 414.673 246.647 414.711 242.949 417.89C241.272 419.332 239.789 418.425 238.472 417.362C235.248 414.759 232.341 415.37 229.63 418.097C227.416 420.323 225.606 419.754 223.084 418.157C218.133 415.023 214.731 410.94 213.052 405.388C212.284 402.848 210.315 402.2 208.04 402.08C200.022 401.658 194.012 409.878 197.123 417.3C198.545 420.693 197.389 423.009 195.259 425.387C192.805 428.128 189.25 430.847 195.664 433.39C198.219 434.403 196.867 436.866 196.305 438.679C195.316 441.867 196.397 443.402 199.684 443.726C209.099 444.655 218.486 445.887 227.933 443.838C242.935 440.584 257.388 436.433 268.321 424.499C273.151 419.228 278.744 414.658 283.965 409.743C288.052 405.895 290.554 400.781 294.859 396.949C298.407 393.791 297.848 388.488 297.33 384.13C299.115 382.203 301.201 384.783 302.855 382.972C304.14 380.377 300.418 379.354 300.592 377.023C306.158 372.662 306.158 372.662 303.52 365.768C308.89 365.97 312.177 364.589 307.563 358.925C312.576 356.406 313.361 353.142 310.33 349.146C308.729 347.035 309.714 346.025 311.492 344.781C314.009 343.02 315.334 340.608 313.886 337.47C313.186 335.952 313.54 334.549 314.044 333.115C315.151 329.968 315.417 326.969 312.886 324.255C311.812 323.104 311.822 321.545 311.717 320.02C311.261 313.433 308.024 307.681 306.207 301.536C304.339 295.218 300.472 291.198 295.942 287.228C295.463 286.809 294.786 286.004 294.912 285.599C296.686 279.877 291.606 279.012 288.657 276.692C285.876 274.503 283.509 272.019 281.727 268.918C277.115 260.894 279.438 254.443 288.131 251.009C302.59 245.296 319.316 252.635 326.705 260.568C328.998 263.029 331.043 265.58 334.395 266.685C335.28 266.977 336.198 267.69 336.728 268.465C344.811 280.289 351.871 292.569 355.332 306.703C358.94 321.433 360.701 336.181 357.128 351.117C353.537 366.124 351.09 381.649 341.336 394.338C336.383 400.781 333.108 408.66 325.462 412.93C321.406 415.194 322.318 420.337 320.218 423.843C319.407 425.198 321.275 425.576 322.039 426.337C323.354 427.646 323.318 429.095 321.859 430.187C320.225 431.411 318.797 430.981 317.691 429.217C313.896 423.164 313.547 423.11 308.911 428.166C307.481 429.726 306.01 430.852 303.741 430.563C302.948 430.462 301.664 430.414 301.361 430.858C297.92 435.896 293.84 439.852 287.484 441.007C286.083 441.261 286.331 443.102 286.781 444.492C287.864 447.842 285.045 448.916 283.032 450.086C280.85 451.355 279.727 449.552 278.911 447.788C277.728 445.231 275.895 445.082 273.547 446.124C269.546 447.899 266.534 450.57 265.239 454.865C264.853 456.144 264.733 457.537 262.706 457.9C262.403 457.644 261.527 457.256 261.518 456.848C261.369 450.055 257.23 451.233 253.003 452.49C251.096 453.057 249.202 453.852 247.252 454.049C242.818 454.498 239.356 455.666 239.759 461.157C239.792 461.604 239.038 462.108 238.742 462.472C236.668 462.237 236.725 460.658 236.273 459.479C235.825 458.31 235.028 456.975 233.813 457.562C228.598 460.08 222.877 456.157 217.738 459.017C216.243 459.848 214.846 458.78 213.408 458.499C211.57 458.141 209.729 457.959 208.339 460.176ZM228.11 748C224.9 746.454 224.064 743.346 224.269 740.415C224.94 730.848 230.114 718.004 243.077 715.876C255.388 713.855 267.947 719.848 272.698 730.557C275.165 736.118 276.011 742.318 279.206 747.62C279.974 747.403 280.575 747.413 280.889 747.117C287.084 741.305 289.331 733.137 293.309 726.004C293.838 725.056 293.195 723.434 293.042 722.131C292.63 718.611 292.271 715.181 295.474 712.501C296.772 711.415 297.707 709.647 296.872 708.014C295.37 705.075 296.192 702.611 297.572 699.989C298.942 697.385 298.724 694.653 298.319 691.736C297.765 687.749 295.778 683.389 297.741 679.716C299.803 675.858 299.356 672.805 297.345 669.506C296.263 667.73 295.797 665.862 295.803 663.81C295.808 662.139 295.856 660.334 294.218 659.317C291.979 657.928 291.687 656.088 292.331 653.724C293.176 650.62 291.705 648.252 289.557 646.187C288.604 645.27 287.083 644.495 286.797 643.401C284.531 634.715 276.991 630.748 270.895 625.636C263.056 619.062 256.571 620.917 252.294 630.342C252.06 630.857 251.384 631.171 251 631.504C248.497 631.027 248.385 628.785 247.38 627.394C243.091 621.456 243.565 617.298 249.243 612.821C253.952 609.108 259.278 607.826 265.177 609.919C268.467 611.087 271.84 612.105 274.881 607.598C269.875 603.837 265.384 599.51 260.093 596.674C247.525 589.938 234.133 586.317 219.716 589.485C215.947 590.313 212.215 591.579 211.311 596.14C211.021 597.599 210.37 599.132 208.883 598.705C201.608 596.62 199.255 602.767 195.11 606.283C191.548 609.304 193.457 614.697 189.687 617.129C185.234 620.003 185.038 624.176 184.924 628.801C184.721 637.083 183.564 645.277 186.853 653.402C190.32 661.966 194.874 663.959 202.713 659.31C203.857 658.632 204.836 657.626 206.036 657.101C210.196 655.283 214.773 654.267 219.119 654.514C225.43 654.873 230.874 659.654 237.613 659.007C238.341 658.937 239.665 659.401 239.821 659.897C241.725 665.967 250.848 665.817 250.958 674.264C251.027 679.55 248.161 691.969 242.586 693.592C238.808 694.692 235.799 696.334 232.774 698.681C229.934 700.885 209.685 698.968 207.05 696.327C203.547 692.815 197.467 692.334 196.519 686.409C193.088 687.443 191.998 690.256 189.71 691.603C186.487 693.499 185.61 696.3 187.069 699.71C188.024 701.943 187.908 703.877 186.192 705.682C185.21 706.715 185.125 708.069 185.068 709.421C184.324 726.875 191.085 742.323 199.235 756.944C201.383 760.798 204.002 764.761 206.487 768.616C210.226 774.42 215.249 779.46 220.108 784.453C222.84 787.26 226.121 788.094 229.828 784.987C232.72 782.563 236.21 780.73 239.661 779.12C246.86 775.759 251.936 769.941 256.891 764.177C261.057 759.331 262.087 753.508 261.885 746.714C261.648 738.758 260.11 733.895 252.661 731.042C248.17 729.321 244.546 731.103 243.298 735.645C251.092 738.447 254.537 747.558 249.677 753.367C246.32 757.381 241.516 759.112 235.342 757.863C230.3 756.843 228.998 753.805 229.78 749.196C229.821 748.955 229.085 748.581 228.11 748ZM48.3141 186.264C52.2515 191.84 55.5921 192.321 59.3029 187.669C63.1019 182.907 66.4671 177.793 71.3633 173.982C73.1433 172.597 74.053 170.669 73.9081 168.284C73.7569 165.796 74.7517 164.098 77.4699 163.793C81.308 163.362 83.3978 161.224 83.8893 157.364C84.2568 154.478 85.9127 153.158 88.9646 153.001C93.6436 152.76 97.2099 150.703 98.1132 145.581C99.9648 144.923 102.105 146.412 103.509 144.842C109.379 138.281 118.191 138.256 125.487 134.88C128.998 133.255 135.93 136.609 137.386 140.115C137.808 141.132 137.962 142.46 137.042 142.828C131.739 144.949 131.185 150.532 128.323 154.409C114.794 172.732 107.801 193.597 104.476 215.881C104.273 217.242 104.209 218.744 105.71 219.35C108.565 220.503 110.714 222.594 113.035 224.463C115.143 226.16 116.86 225.736 117.714 223.312C118.869 220.034 120.563 216.604 120.46 213.288C120.161 203.703 126.075 197.948 132.29 192.336C135.968 189.015 142.995 189.701 146.406 193.236C147.363 194.227 148.21 195.252 147.718 196.753C147.243 198.205 146.099 198.901 144.672 198.919C138.77 198.994 136.333 203.124 134.446 207.731C131.957 213.805 130.829 220.114 131.408 226.734C131.597 228.902 130.958 231.486 133.508 232.314C137.046 233.462 141.32 235.978 144.381 233.56C147.968 230.727 149.455 231.411 151.063 234.83C151.749 236.288 152.763 236.788 154.238 236.616C156.15 236.393 156.744 234.979 156.669 233.398C156.409 227.922 158.673 222.221 154.57 217.054C153.241 215.38 153.331 212.527 155.138 210.561C158.06 207.38 158.776 203.541 158.616 199.452C158.428 194.638 157.921 189.83 157.907 185.018C157.896 181.358 157.503 178.598 153.087 177.667C150.619 177.147 148.93 174.919 148.863 172.073C148.802 169.49 150.465 168.238 152.655 167.41C156.55 165.938 158.355 162.799 158.563 158.922C158.892 152.788 159.483 146.507 154.839 141.366C153.772 140.185 153.861 138.63 153.744 137.114C153.491 133.83 154.964 130.942 155.558 127.86C155.987 125.638 156.6 123.211 153.435 122.056C143.739 118.52 135.181 111.74 124.143 111.988C122.004 112.036 120.409 110.75 120.087 108.337C119.512 104.03 124.796 97.8085 129.086 98.1859C137.286 98.9072 145.769 98.3351 153.237 102.903C154.088 103.423 155.076 103.745 156.512 102.698C157.75 97.588 156.317 92.363 155.276 86.9954C153.731 79.0264 152.628 77.8807 144.363 78.3339C144.031 78.3521 143.702 78.4253 143.37 78.4509C133.769 79.1913 124.116 76.5151 114.519 78.9363C113.099 79.2946 111.574 78.5405 110.291 77.6828C109.146 76.9175 107.916 76.7287 106.524 76.6758C94.0443 76.2022 82.2589 79.8849 70.3386 82.6949C69.0089 83.0084 67.7349 84.1946 66.7657 85.2732C64.4909 87.8048 62.1471 89.5753 58.5132 88.0256C57.1609 87.4488 55.6184 87.9515 54.9197 89.1001C52.2752 93.4473 48.4116 96.3829 44.4036 99.3573C38.1736 103.98 35.7585 111.381 32.0334 117.798C30.4065 120.6 31.052 123.242 33.4195 125.46C34.457 126.432 36.1506 126.886 36.1028 128.922C34.9043 130.532 30.9846 130.738 33.0559 134.387C34.3099 136.596 37.5371 136.767 38.1807 139.528C37.33 141.313 35.7195 141.097 34.2717 141.183C30.3035 141.417 28.7687 142.786 30.8397 146.911C32.3059 149.831 33.0778 152.969 32.6896 156.531C32.1065 161.88 33.9082 163.631 39.4035 163.983C41.749 164.133 43.5554 165.016 45.1669 166.551C47.6063 168.874 49.2121 170.8 44.3328 172.422C40.7119 173.625 40.0649 177.875 42.775 181.03C44.2687 182.768 46.2263 184.109 48.3141 186.264ZM72.5913 686.425C73.645 692.843 74.8324 699.205 78.7209 704.686C79.5921 705.914 79.8789 707.362 79.7726 708.955C79.3241 715.676 79.5289 715.897 85.9447 716.824C88.7344 717.227 90.265 718.407 87.9545 721C85.9252 723.276 86.6715 725.136 87.9908 727.284C91.2564 732.6 95.6781 737.13 98.4368 742.804C98.8819 743.719 100.132 744.333 101.126 744.875C104.337 746.627 107.346 748.328 109.044 752.012C110.126 754.359 112.573 755.89 115.547 756.022C119.038 756.176 122.516 756.632 126.007 756.758C136.546 757.137 146.192 752.187 147.772 741.928C148.237 738.907 150.153 738.677 152.472 740.532C156.746 743.951 157.419 749.141 153.863 754.297C148.855 761.558 141.71 765.942 133.567 768.98C130.936 769.961 128.067 767.985 125.392 769.756C125.777 770.41 125.971 771.134 126.264 771.177C133.345 772.215 136.884 780.413 144.638 780.248C145.612 780.227 146.735 781.759 147.589 782.745C148.848 784.198 150.353 785.282 152.193 785.546C162.82 787.07 173.041 790.951 183.93 790.957C187.735 790.96 191.494 789.881 195.322 790.546C196.783 790.8 198.46 791.335 199.36 789.667C200.264 787.992 199.148 786.602 198.41 785.062C196.489 781.054 191.237 779.112 191.546 773.684C191.616 772.454 189.925 772.313 188.854 771.854C185.065 770.23 182.964 767.536 183.881 763.172C182.925 762.182 181.676 764.216 180.605 762.647C180.752 760.442 179.88 757.975 181.705 755.706C183.191 753.858 182.765 751.637 181.134 750.279C177.728 747.443 177.26 744.044 177.935 739.972C178.346 737.493 177.116 735.133 176.493 732.718C174.733 725.892 172.46 718.999 173.864 711.854C174.557 708.326 174.458 705.375 172.292 702.443C169.623 698.83 169.622 695.541 173.641 692.645C175.731 691.139 177.372 688.993 175.618 686.226C173.856 683.447 174.751 681.168 176.538 678.934C178.201 676.854 179.76 674.67 181.604 672.761C183.639 670.654 183.905 669.046 181.409 667.038C178.29 664.531 176.636 660.882 176.631 657.052C176.627 653.981 176.202 651.554 173.934 649.439C171.679 647.337 171.256 644.803 173.155 642.277C175.088 639.704 175.057 637.539 172.677 635.251C170.71 633.359 170.331 631.137 172.74 629.267C174.611 627.815 174.985 626.036 174.41 623.949C173.125 619.285 173.434 615.177 177.431 611.694C179.615 609.791 178.161 607.303 177.211 605.249C176.595 603.918 175.381 602.484 173.755 602.799C171.305 603.273 171.039 605.59 171.017 607.555C170.976 611.297 169.176 612.596 165.641 612.175C161.187 611.644 158.357 613.262 156.152 617.557C154.081 621.592 150.287 624.679 148.254 629.304C147.127 628.255 146.585 627.87 146.203 627.365C145.709 626.709 145.401 625.891 144.421 625.808C140.671 627.947 139.717 629.157 138.906 633.901C138.462 636.502 137.413 637.941 135.061 636.007C131.379 632.981 129.496 635.03 127.499 637.98C126.323 639.717 125.935 641.965 123.658 643.02C107.88 650.336 102.126 671.183 106.791 684.567C110.458 695.085 123.486 700.054 130.991 693.635C132.561 692.292 133.959 690.789 133.557 688.543C133.117 686.086 130.975 686.483 129.21 686.151C124.139 685.195 122.657 680.039 125.616 675.863C132.304 666.425 147.972 668.626 151.34 679.842C154.216 689.419 153.424 696.958 146.758 703.182C141.947 707.675 134.823 708.167 130.234 712.983C130.062 713.165 129.537 713.192 129.27 713.076C123.836 710.701 117.813 711.846 112.117 709.165C103.202 704.967 100.19 697.001 97.1582 689.282C92.9855 678.661 94.3272 667.529 97.4397 656.695C98.2183 653.985 99.4467 651.401 100.189 648.683C100.711 646.769 100.903 644.558 99.424 642.992C97.9116 641.39 96.0302 642.202 94.3546 643.071C92.9618 643.792 91.5355 643.681 90.0073 643.662C85.2969 643.605 81.6212 640.808 77.4701 639.294C73.0667 637.688 70.8939 638.553 70.5059 643.113C69.2929 657.363 68.4966 671.644 72.5913 686.425ZM157.714 260.873C157.376 258.891 158.341 255.318 155.534 255.636C150.811 256.172 148.399 254.463 146.611 250.505C146.22 249.638 144.782 249.151 143.738 248.688C137.939 246.12 131.801 247.263 125.767 246.668C125.193 250.806 127.615 253.762 128.156 257.152C128.524 259.453 128.851 262.002 126.346 263.412C123.766 264.864 121.805 263.13 120.213 261.466C115.333 256.365 112.689 250.501 114.924 243.299C115.423 241.693 116.359 239.907 114.851 238.634C111.79 236.051 107.98 234.587 104.1 234.48C100.648 234.384 99.9924 238.009 99.0557 240.535C95.1823 250.978 96.1978 261.877 96.4545 272.682C96.4948 274.377 97.3276 275.899 98.6875 277.009C100.672 278.628 100.786 280.299 98.8637 282.012C96.4624 284.151 95.9799 286.193 98.5262 288.722C100.233 290.417 100.424 292.537 98.5473 294.499C95.2168 297.982 95.5793 301.21 99.1522 304.351C101.621 306.521 102.127 309.157 100.029 311.877C98.4661 313.903 98.3484 316.001 98.7093 318.456C100.896 333.327 104.467 347.799 110.776 361.499C112.858 366.02 113.873 371.604 117.746 374.565C121.57 377.487 122.541 380.402 122.14 384.663C121.844 387.816 122.512 391.111 125.918 392.017C128.738 392.766 129.809 394.612 130.876 397.503C134.379 392.045 139.034 391.979 143.939 393.357C146.688 394.129 148.339 393.269 149.652 390.846C151.008 388.344 152.855 387.257 154.954 390.182C156.508 392.348 158.052 391.606 159.582 390.307C166.014 384.844 164.837 375.502 157.249 372.107C153.745 370.539 153.026 368.041 154.592 364.807C155.946 362.013 157.978 359.325 161.301 359.639C164.879 359.978 168.261 361.806 168.691 365.93C169.22 371 172.096 371.371 176.045 370.393C179.494 369.538 183.003 369.633 186.478 370.015C191.168 370.53 194.689 372.643 195.772 377.652C196.74 382.131 197.738 386.603 198.784 391.355C200.796 390.894 202.378 390.315 203.991 390.204C208.387 389.903 209.12 387.912 207.886 383.875C206.463 379.216 204.365 374.908 202.417 370.498C201.239 367.831 198.972 365.09 200.509 362.048C202.719 357.675 200.972 353.563 200.094 349.515C198.611 342.679 198.344 342.731 190.881 343.309C183.005 343.919 175 346.009 167.742 340.658C167.125 341.703 166.642 342.222 166.493 342.823C165.767 345.738 163.918 347.885 161.014 347.773C157.584 347.641 158.466 344.162 158.346 342.212C158.068 337.695 156.038 334.779 152.125 332.809C150.502 331.991 149.001 330.895 147.54 329.799C141.309 325.126 134.394 320.892 135.493 311.041C130.288 311.929 127.165 309.387 126.658 304.957C125.958 298.848 126.195 292.6 129.87 287.165C133.831 281.308 140.583 280.275 144.824 284.823C144.426 286.476 142.895 286.491 141.693 286.859C140.202 287.316 139.016 288.166 137.917 289.205C133.807 293.092 133.838 295.135 138.025 298.651C139.295 299.716 141.105 300.729 141.031 302.461C140.638 311.586 149.943 311.389 154.041 317.989C156.256 311.448 157.908 306.464 157.93 301.184C157.986 288.054 157.802 274.923 157.714 260.873ZM52.4989 337.257C53.2617 339.097 54.1911 340.888 54.7609 342.786C59.4939 358.552 66.6565 372.889 78.417 384.734C81.5497 387.89 85.4218 390.548 87.3019 394.766C90.1181 401.084 96.5297 404.483 99.7289 410.468C100.565 412.032 102.239 411.972 103.741 411.84C107.673 411.493 110.351 412.873 112.097 416.645C113.756 420.229 117.085 421.325 120.901 420.794C122.138 420.623 123.017 419.82 123.406 418.609C123.837 417.266 123.188 416.249 122.069 415.716C119.647 414.56 118.678 412.165 117.042 410.33C113.622 406.497 111.025 402.077 107.946 398.095C102.289 390.778 96.5676 383.502 91.036 376.076C88.7156 372.961 86.6324 370.148 89.9208 366.417C91.2064 364.959 90.4673 363.185 89.6749 361.711C86.9574 356.656 85.6326 351.243 84.983 345.573C83.8949 336.076 77.2139 328.506 76.9652 318.213C76.7574 309.607 75.8175 300.718 74.8177 291.987C73.4479 280.026 75.3548 268.073 75.758 256.112C75.9994 248.954 75.4739 241.766 79.2075 235.187C80.1271 233.567 79.7644 231.62 79.8617 229.79C80.1052 225.209 79.2701 219.954 81.257 216.251C83.3213 212.403 81.612 209.307 82.2061 206.119C82.829 202.776 88.1442 201.75 88.5339 197.314C88.7938 194.354 89.5065 191.391 90.3882 188.544C91.0653 186.358 92.9805 184.079 90.7333 182.161C88.4341 180.199 85.6689 181.082 83.2995 182.598C76.1458 187.175 69.7059 192.172 66.4544 200.688C63.7582 207.75 58.5016 213.991 56.6581 221.18C54.6079 229.174 49.679 236.061 48.7436 244.283C48.1167 249.795 44.5332 255.321 49.1306 260.907C50.6468 262.749 48.6192 264.346 46.8869 265.064C43.1949 266.595 42.0332 269.506 42.3471 273.106C43.1363 282.157 44.3084 291.166 44.6934 300.264C45.2223 312.758 50.1743 324.405 52.4989 337.257ZM215.812 45.0108C213.631 43.9337 212.475 40.7315 209.612 41.3203C205.437 42.1786 202.178 40.9145 199.05 38.3131C198.116 37.5363 196.539 37.0555 195.329 37.1744C191.234 37.5769 187.753 36.5377 184.847 33.6293C183.221 32.0012 181.572 32.0041 180.152 33.7635C177.151 37.4815 174.42 36.7893 171.467 33.6403C169.315 31.3445 166.753 30.5957 163.912 32.7274C162.099 34.0875 160.399 34.2953 158.666 32.3491C155.807 29.1392 152.959 29.6155 150.189 32.6446C148.925 34.0279 146.331 35.6545 145.646 33.744C143.447 27.6156 138.795 30.2904 134.941 29.9273C130.86 29.5428 128.165 30.8478 127.637 35.3379C127.489 36.5999 126.961 37.9735 125.288 38.1217C124.047 37.96 123.74 36.9619 123.323 36.06C120.767 30.5323 113.691 29.1381 109.871 33.8109C107.383 36.8546 105.094 37.0818 101.664 35.9486C97.5763 34.5979 95.1613 36.7 95.5788 41.0147C95.7808 43.1017 96.3207 45.1633 97.1047 47.2338C99.1847 52.7273 102.159 54.3989 108.02 52.3858C112.12 50.9775 117.073 51.7328 121.165 52.3453C129.864 53.6473 138.624 54.5494 147.308 55.9358C161.293 58.1683 174.694 62.7756 188.299 66.5098C207.783 71.8576 227.002 78.1796 247.408 79.3734C263.589 80.3199 279.694 80.6951 295.444 76.0705C297.961 75.3316 301.071 75.5479 302.89 73.5285C305.374 70.7724 301.691 68.3793 301.73 65.6596C301.737 65.1632 301.615 64.6663 301.598 64.1681C301.469 60.4045 299.696 58.56 295.851 59.5112C279.427 63.574 264.238 55.793 248.367 54.5621C247.144 54.4672 246.027 53.3582 244.803 52.8618C240.816 51.2443 236.902 49.1813 232.352 50.8347C231.073 51.2996 229.085 51.5044 228.593 50.4549C226.047 45.0297 220.783 46.4133 215.812 45.0108ZM81.0902 531.813C84.8278 535.259 84.7812 536.818 80.8639 539.377C73.6663 544.078 71.8308 554.511 76.9571 561.584C80.0963 565.915 82.1278 565.921 85.3694 561.668C89.5294 556.21 94.5615 551.674 99.8213 547.269C107.601 540.754 115.2 533.986 122.451 526.891C127.705 521.751 127.26 520.286 121.412 516.153C120.202 515.298 119.138 514.231 118.026 513.239C112.998 508.754 107.135 505.555 100.686 504.057C96.5649 503.1 91.7257 506.759 87.8437 502.413C87.6903 502.241 86.5054 502.659 86.1148 503.088C84.3275 505.05 82.6272 504.88 80.3882 503.654C78.6487 502.701 76.1133 502.657 74.5796 503.728C70.9676 506.25 68.0455 509.926 62.7349 507.816C62.0643 507.549 60.4453 509.493 59.3513 510.505C57.0298 512.653 58.2462 516.254 56.1175 518.964C52.6737 515.828 50.566 517.172 47.9467 520.294C42.9104 526.299 40.1918 534.025 33.4269 539.036C36.3632 542.324 36.4064 545.201 33.7078 548.865C30.9496 552.609 32.489 559.009 36.0008 562.334C37.6527 563.898 38.0034 565.196 36.1853 566.896C32.1714 570.648 32.695 574.564 37.5721 577.059C40.2819 578.445 40.7778 579.99 38.9235 582.548C36.3182 586.142 37.9676 590.089 42.3356 590.886C44.1447 591.217 46.0845 591.04 46.7342 593.338C42.2825 598.927 42.5488 600.284 48.8227 604.106C51.945 606.009 54.7741 608.262 57.3123 610.914C60.5031 614.247 62.1351 613.989 63.746 609.776C66.7194 601.999 69.5664 594.174 72.4046 586.346C73.6916 582.796 73.3726 579.675 70.4003 576.801C66.9475 573.463 65.3066 569.081 64.5984 564.336C63.3977 556.291 64.5479 548.437 66.382 540.63C67.0521 537.778 69.0102 536.035 71.5989 534.99C74.5046 533.816 77.4694 532.788 81.0902 531.813ZM199.252 165.242C200.083 162.308 199.58 159.745 197.169 157.454C196.499 157.857 195.905 158.127 195.414 158.524C190.313 162.657 181.359 160.828 178.33 155.063C177.631 153.733 177.794 152.502 178.325 151.239C181.178 144.454 181.17 144.476 175.286 140.313C172.123 138.075 168.854 135.948 170.497 131.067C171.161 129.096 170.202 127.157 167.975 127.049C165.485 126.928 165.324 129.156 165.279 131.002C164.953 144.413 163.252 157.915 167.67 171.037C168.473 173.423 168.261 175.611 166.891 177.701C163.646 182.654 163.122 188.211 163.002 193.949C162.918 197.937 163.879 201.115 167.496 203.223C170.412 204.923 171.142 207.647 171.151 210.889C171.165 215.987 169.096 220.563 168.032 225.389C166.357 232.983 167.574 236.917 175.074 238.376C181.276 239.583 187.282 238.546 193.357 237.331C197.541 236.494 198.787 234.612 198.861 230.202C199.112 215.339 197.944 200.497 200.103 185.562C200.982 179.476 198.555 172.567 199.252 165.242ZM168.215 312.43C168.477 316.075 168.893 319.718 168.961 323.368C169.047 328.014 171.679 330.229 175.86 330.138C182.828 329.986 189.83 330.358 196.766 329.094C199.593 328.578 201.526 327.472 201.628 324.451C201.727 321.512 199.699 320.515 197.178 320.038C194.389 319.51 193.027 318.309 193.266 314.913C193.476 311.93 194.013 309.779 196.281 307.668C199.531 304.644 200.898 300.432 201.597 296.125C202.104 292.999 199.364 291.563 197.734 289.537C197.183 288.852 197.035 287.685 197.036 286.738C197.042 278.808 195.337 270.908 196.807 262.945C197.559 258.873 195.508 256.774 191.488 256.115C187.979 255.54 184.168 255.847 181.443 252.883C179.685 254.346 178.294 256.152 176.078 255.613C170 254.135 167.998 257.466 167.528 262.647C167.288 265.291 167.164 267.949 167.097 270.604C166.75 284.245 167.036 297.87 168.215 312.43ZM136.799 545.731C136.433 543.941 136.173 542.121 135.675 540.368C134.978 537.916 133.256 536.443 130.814 537.692C122.51 541.937 114.495 546.897 109.619 555.038C107.393 558.756 104.929 561.671 101.434 563.939C95.7385 567.636 95.3142 574.184 93.5742 579.73C92.3185 583.733 97.8655 582.13 99.5013 584.218C99.9099 584.74 100.376 585.218 100.829 585.703C102.442 587.432 104.539 588.11 106.736 587.643C117.667 585.323 127.41 581.257 131.67 569.659C132.368 567.759 133.089 565.669 134.916 564.786C140.624 562.027 139.378 557.398 138.447 552.815C138.02 550.712 137.428 548.643 136.799 545.731ZM248.276 189.26C243.248 181.385 234.551 182.319 227.027 180.528C225.778 180.231 224.651 181.476 223.884 182.658C219.902 188.79 220.142 207.418 224.742 213.44C227.63 217.22 227.587 221.03 226.577 225.192C226.149 226.958 225.417 228.688 225.257 230.474C224.892 234.556 226.597 235.765 230.322 233.9C234.616 231.75 238.865 229.516 242.69 226.496C253.609 217.873 259.351 202.929 248.276 189.26ZM166.253 433.284C168.937 434.595 171.589 435.981 174.318 437.191C176.195 438.023 178.656 437.973 178.421 435.506C178.005 431.154 179.046 426.574 177.164 422.458C175.121 417.991 175.649 416.435 181.13 415.222C177.151 408.654 182.502 404.315 185.325 399.602C187.989 395.154 190.048 390.879 189.754 385.676C189.544 381.963 187.758 379.533 184.19 378.648C182.117 380.457 181.982 382.761 181.577 384.808C180.196 391.79 176.775 397.255 171.264 401.883C168.527 404.183 165.629 403.356 162.89 404.238C158.397 405.684 154.099 407.566 148.934 406.531C144.518 405.645 140.157 411.638 142.751 414.642C145.402 417.711 148.366 420.502 150.06 424.988C152.463 422.033 154.608 421.045 156.905 423.43C159.881 426.52 162.735 429.725 166.253 433.284ZM308.98 277.881C306.713 279.066 306.734 280.364 308.567 282.062C310.508 283.862 312.343 285.74 313.647 288.155C323.198 305.856 328.553 324.579 327.026 344.826C326.183 356.009 325.361 367.279 319.116 377.24C317.96 379.084 316.791 381.335 317.739 383.981C319.821 378.622 321.907 373.417 327.441 370.712C328.346 370.27 328.81 369.111 328.307 368.097C326.86 365.18 327.846 362.315 329.118 359.939C334.589 349.72 334.734 338.508 335.554 327.442C336.059 320.623 335.444 313.894 333.104 307.301C329.23 296.381 321.654 287.926 314.937 278.878C313.497 276.938 311.614 276.939 308.98 277.881ZM162.929 100.635C165.933 112.133 165.933 112.131 177.31 112.977C178.138 113.038 178.962 113.168 179.789 113.253C181.933 113.474 183.004 112.323 182.899 110.349C182.459 102.103 183.816 94.4777 190.801 88.4922C184.873 85.3671 179.715 82.4066 174.341 79.9104C171.383 78.536 167.745 79.2396 166.381 82.0647C163.723 87.5723 160.46 93.2313 162.929 100.635ZM44.0708 497.373C44.7747 495.813 44.9249 494.16 44.6957 492.501C44.1233 488.356 41.6973 485.501 37.9639 483.944C35.3077 482.836 32.4972 482.661 30.0173 484.745C26.4425 487.749 26.533 491.791 27.2564 495.738C27.9734 499.65 29.0971 503.519 33.6654 504.995C38.2031 506.461 40.1356 505.227 44.0708 497.373ZM80.5545 56.0981C82.5794 54.7754 84.4437 54.5782 87.0066 55.3032C92.6545 56.9008 95.1477 54.0084 93.49 48.4658C93.2527 47.6725 92.957 46.8961 92.7349 46.0988C91.622 42.1038 88.6795 41.3426 85.0238 41.52C80.5235 41.7384 83.4895 45.395 82.396 47.1C74.2125 49.0546 72.8855 50.9682 74.8679 57.9343C76.8252 58.3993 78.3213 57.2178 80.5545 56.0981ZM220.857 683.754C223.61 683.607 226.363 683.459 229.034 683.317C229.64 681.593 227.592 680.394 228.634 678.849C229.931 676.702 232.947 678.601 234.288 676.529C232.927 671.691 232.927 671.691 227.276 676.729C225.488 676.208 224.417 674.926 224.368 673.14C224.261 669.241 222.122 669.179 219.349 670.314C216.607 671.437 213.063 672.251 212.78 675.682C212.515 678.893 215.434 680.771 217.893 682.485C218.566 682.953 219.38 683.217 220.857 683.754ZM206.404 133.553C206.19 131.369 204.761 131.219 203.229 131.924C201.394 132.769 199.512 133.081 197.542 133.367C194.05 133.872 193.259 136.205 195.53 138.891C196.503 140.042 197.917 141.526 199.239 140.4C201.611 138.38 206.495 139.112 206.404 133.553ZM206.496 152.208C206.159 149.112 205.259 145.684 201.669 146.041C198.177 146.388 199.108 150.015 199.175 152.54C199.211 153.896 199.744 155.25 201.319 155.455C203.496 155.737 205.068 154.596 206.496 152.208ZM326.181 58.6677C325.782 57.1335 325.977 55.2508 323.427 54.5507C321.528 56.8999 317.231 57.4421 317.617 62.492C321.131 62.8789 324.22 62.8913 326.181 58.6677ZM122.786 789.815C123.573 791.169 123.651 792.986 125.618 793.963C126.436 792.551 127.518 791.26 127.949 789.779C128.368 788.342 127.733 786.832 126.334 785.982C125.159 785.268 123.743 785.115 122.575 785.79C120.897 786.758 122.132 788.051 122.786 789.815ZM189.927 126.657C188.796 125.556 187.897 123.77 185.873 125.119C185.022 125.685 184.161 126.64 184.815 127.577C186.213 129.58 187.996 131.212 190.853 131.2C191.152 129.657 190.897 128.412 189.927 126.657Z" fill="white" fill-opacity="0.32"/>
<path d="M149.802 286.938C150.343 287.28 150.618 287.458 150.85 287.681C152.4 289.172 152.667 290.761 150.94 292.252C149.982 293.08 148.263 293.207 148.098 292.009C147.86 290.286 145.706 287.557 149.802 286.938Z" fill="white" fill-opacity="0.32"/>
</svg>
