<svg width="173" height="170" viewBox="0 0 173 170" fill="none" xmlns="http://www.w3.org/2000/svg">
<g clip-path="url(#clip0_107_3309)">
<path d="M38.1562 68.1627C37.9582 69.9427 34.8152 72.8127 33.6022 74.1727C31.2852 76.7827 27.6882 78.8426 24.2422 79.4426C19.1272 80.3326 10.7852 83.3926 8.23823 76.2626C6.78023 72.1826 5.58123 61.7426 8.48923 58.0026C11.2592 54.4426 20.9472 56.1226 24.9942 56.1226C27.3762 56.1226 25.9512 56.1826 24.4512 56.1226C21.6822 56.0226 17.5262 53.2326 15.4252 51.6126C9.28921 46.8726 6.58022 42.4926 5.22922 34.9026C4.33822 29.8826 5.91823 21.5226 12.2082 21.5226C15.8892 21.5226 20.6082 28.8626 21.9442 31.7226C22.7922 33.5426 23.7482 36.0726 23.8662 38.0726C23.9862 40.1126 25.3352 34.3126 25.5372 33.7326C29.1282 23.3126 38.2112 9.94264 48.6452 5.77264C57.9402 2.05264 71.7302 12.4526 72.0032 22.2826C72.2202 30.1126 64.3042 31.8126 57.7122 32.9726C55.4902 33.3726 51.6422 32.8126 55.5392 32.8126C61.7342 32.8126 68.1872 32.2927 74.3432 32.9327C84.0842 33.9427 97.3362 39.8526 96.0302 51.6126C95.1972 59.1026 83.6672 60.7326 78.0202 62.1426C72.6832 63.4726 61.6022 66.2926 59.2162 59.1326" stroke="#D98593" stroke-width="8.46953" stroke-linecap="round"/>
<path d="M39.6614 44.5126C39.6614 47.1826 36.9533 49.0126 37.6203 52.0226C38.0643 54.0126 42.9214 53.3825 44.3174 53.3125C49.1904 53.0625 50.1464 46.0725 44.8344 46.0725" stroke="#D98593" stroke-width="8.46953" stroke-linecap="round"/>
<path d="M43.281 63.6526C46.573 63.6526 49.724 67.2725 51.759 69.6025C54.685 72.9625 56.9569 77.8426 57.2189 82.3026C57.4209 85.7326 57.7979 90.1426 57.1329 93.5426C56.2579 98.0126 53.692 102.313 51.845 106.423C49.235 112.223 45.979 117.993 44.574 124.233C43.17 130.483 42.247 136.373 42.247 142.773C42.247 147.113 41.89 151.583 42.649 155.853C43.247 159.213 44.357 162.253 45.35 165.562" stroke="#339252" stroke-width="8.46953" stroke-linecap="round"/>
<path d="M39.2313 127.683C39.2313 123.463 39.9232 118.593 38.9012 114.503C37.9792 110.813 35.1553 109.993 31.9062 108.873C28.7262 107.773 22.7513 106.523 19.6643 108.633C16.4423 110.843 14.9854 114.903 14.9854 118.653C14.9854 123.253 15.0383 129.503 19.3333 132.363C22.1933 134.273 25.5553 135.873 29.1173 134.823C31.3473 134.163 33.7584 132.303 35.4034 130.663C37.4074 128.653 38.1082 125.553 41.3582 125.553" stroke="#339252" stroke-width="8.46953" stroke-linecap="round"/>
<path d="M51.1421 107.263C51.2861 104.673 54.0171 102.503 55.7261 100.793C58.2931 98.2226 60.9801 96.0125 64.3281 94.5225C69.7041 92.1325 76.1201 91.1625 80.9171 95.1625C90.4801 103.133 85.6841 117.972 76.5691 123.852C70.2551 127.922 59.1491 126.902 57.9241 118.322C57.7241 116.922 57.0971 115.932 57.0971 114.472C57.0971 113.062 57.0971 111.653 57.0971 110.243C57.0971 106.973 58.7981 104.183 58.7981 100.883" stroke="#339252" stroke-width="8.46953" stroke-linecap="round"/>
<path d="M108.567 162.562C108.567 159.872 108.567 157.173 108.567 154.483C108.567 148.783 111.808 143.433 115.397 139.123C121.132 132.243 129.082 126.023 133.144 117.903C135.364 113.463 136.261 108.353 135.767 103.413C135.544 101.183 133.694 98.6026 132.624 96.6526C131.622 94.8326 130.905 92.8825 129.836 91.1025" stroke="#339252" stroke-width="8.46953" stroke-linecap="round"/>
<path d="M120.903 88.5527C120.903 92.1327 112.132 94.0827 109.418 94.0827C103.566 94.0827 97.177 90.3227 95.712 84.2927C94.698 80.1227 95.044 73.9526 99.635 71.9826C102.765 70.6426 105.864 70.6828 109.206 70.6828C110.553 70.6828 111.9 70.6828 113.247 70.6828C114.916 70.6828 113.649 69.7826 112.821 68.7426C111.664 67.3026 110.938 63.7326 110.505 61.9426C109.615 58.2526 109.103 52.8926 110.104 49.2226C112.279 41.2526 121.537 33.3226 130.167 35.0426C135.525 36.1226 137.918 43.7926 137.918 48.4726C137.918 53.2326 135.835 57.6126 134.113 61.9126C133.698 62.9526 135.021 59.8226 135.791 59.0126C138.774 55.8726 143.578 52.6826 147.702 51.2126C156.364 48.1126 163.378 54.7226 166.82 61.8926C167.768 63.8626 169.982 73.4825 166.205 74.0625C161.23 74.8325 146.08 74.3827 151.105 74.0827C153.728 73.9327 155.457 75.9425 157.343 77.5625C160.867 80.5825 162.796 83.9526 164.504 88.1226C166.863 93.8926 163.744 96.9825 158.147 97.8125C154.308 98.3825 150.396 98.3327 146.52 98.3327C141.376 98.3327 138.31 95.0526 134.515 91.9526" stroke="#D98593" stroke-width="8.46953" stroke-linecap="round"/>
<path d="M130.004 74.1326C129.8 76.3726 129.103 78.3125 132.095 78.3125C132.915 78.3125 133.754 78.4226 134.128 77.5326C134.735 76.0926 133.197 76.3425 132.879 75.7025" stroke="#D98593" stroke-width="8.46953" stroke-linecap="round"/>
<path d="M124.515 127.713C124.515 124.833 124.877 121.713 124.311 118.893C123.844 116.553 121.834 114.023 120.158 112.383C118.083 110.353 116.171 109.683 113.333 109.683C111.367 109.683 108.959 111.163 108.047 112.933C105.592 117.703 106.617 122.363 110.342 126.093C112.07 127.823 114.138 128.483 116.354 129.283C117.985 129.883 119.522 129.283 121.117 129.283" stroke="#339252" stroke-width="8.46953" stroke-linecap="round"/>
<path d="M123.469 130.852C123.691 129.742 125.872 128.813 126.736 128.243C128.179 127.283 129.76 126.403 131.31 125.623C135.335 123.613 140.961 122.233 145.047 124.783C149.994 127.873 150.457 134.642 146.078 138.452C142.549 141.512 135.289 144.743 130.933 141.183C129.601 140.093 129.189 138.463 128.638 136.923C128.102 135.423 127.375 133.943 126.867 132.423" stroke="#339252" stroke-width="8.46953" stroke-linecap="round"/>
<path d="M75.2821 165.163C75.2821 163.213 75.2201 161.243 75.2821 159.293C75.3671 156.613 77.4061 154.663 78.6241 152.503C79.1171 151.623 79.6071 151.403 78.3691 151.403C76.9831 151.403 75.5841 151.602 74.3231 150.982C71.5351 149.632 69.6161 147.593 69.6161 144.273C69.6161 142.803 69.5261 141.923 70.8301 141.023C72.2951 140.003 74.3381 140.342 76.0311 140.342C76.4211 140.342 77.6781 141.152 77.7101 140.612C77.8181 138.762 78.9821 136.513 80.5571 135.503C81.9311 134.623 85.4071 134.042 86.8821 134.982C88.6781 136.122 89.4121 138.302 89.3101 140.342C89.2821 140.912 89.0151 140.833 89.7001 140.883C91.0291 140.993 92.2291 142.182 93.1171 143.072C94.1231 144.082 95.8211 146.603 94.8101 148.173C93.9441 149.513 91.8211 150.322 90.3591 150.732C88.6271 151.222 86.7951 151.593 85.0091 151.793C83.4051 151.983 81.6481 151.712 80.1381 152.212" stroke="#339252" stroke-width="8.46953" stroke-linecap="round"/>
</g>
<defs>
<clipPath id="clip0_107_3309">
<rect width="173" height="170" fill="white"/>
</clipPath>
</defs>
</svg>
