<svg width="177" height="181" viewBox="0 0 177 181" fill="none" xmlns="http://www.w3.org/2000/svg">
<path d="M81.6196 163.311C81.6196 154.591 81.6936 144.95 82.9786 136.36C84.2606 127.79 88.5446 119.29 92.5196 111.86C93.4936 110.04 95.2076 105.51 97.0246 104.51" stroke="#00F051" stroke-width="8.46953" stroke-linecap="round"/>
<path d="M99.5908 67.1606C97.7658 67.1606 94.0598 66.4406 92.5828 67.8106C90.3228 69.9106 90.5038 74.8806 92.8158 76.6906C93.6748 77.3606 95.0528 78.3906 96.1608 78.4606C96.3818 78.4706 93.9668 78.9705 93.4508 79.1305C90.8348 79.9405 87.3808 81.5505 86.7178 84.7305C85.8268 89.0105 87.8618 91.9206 90.6348 94.5706C92.1268 95.9906 93.8598 96.9906 95.7378 97.6806C96.0398 97.7906 97.3178 98.1005 96.9238 98.1205C95.6268 98.2105 94.6368 100.931 94.6368 102.141C94.6368 104.051 96.5748 105.751 97.7698 106.911C100.372 109.441 103.346 111.091 106.811 111.511C111.075 112.031 114.836 112.611 114.836 106.911C114.836 106.251 114.858 105.581 114.836 104.911C114.829 104.721 114.471 104.481 114.624 104.401C115.699 103.811 118.319 104.441 119.472 104.611C124.04 105.271 128.111 104.571 129.614 99.2906C131.532 92.5506 125.656 89.0306 122.352 84.5906C122.108 84.2706 125.101 84.3106 125.549 84.3106C127.142 84.3106 128.719 84.6206 129.784 83.0606C132.3 79.3806 130.219 74.2905 127.751 71.3705C124.288 67.2705 117.577 65.5505 112.718 65.4905C108.419 65.4305 104.91 64.6706 101.878 68.4106" stroke="#00F051" stroke-width="8.46953" stroke-linecap="round"/>
<path d="M81.7665 156.86C81.7665 151.35 82.4215 146.101 79.6285 141.161C77.3585 137.141 73.7215 133.99 70.8635 130.51C67.5555 126.48 64.9065 122.471 62.8595 117.541C61.2975 113.771 59.8605 109.951 58.2865 106.191C57.3645 103.991 55.9995 101.731 55.9995 99.2206" stroke="#00F051" stroke-width="8.46953" stroke-linecap="round"/>
<path d="M51.5735 95.6105C51.5735 98.2205 51.4225 100.651 49.4345 102.491C47.0945 104.671 42.1785 105.881 39.2084 105.191C35.9567 104.441 34.4234 100.411 34.4234 97.2906C34.4234 96.1506 34.8212 96.5206 33.5765 96.7706C31.2056 97.2606 28.761 96.5505 26.8435 95.0105C23.1025 92.0005 17.7651 84.4706 21.9103 79.3206C24.5509 76.0306 28.1184 75.1105 31.9038 75.1105C32.4516 75.1105 30.8119 74.5505 30.6123 73.9905C29.6269 71.2305 29.4348 67.1205 30.0195 64.2305C31.0624 59.0805 38.4896 54.8805 43.1045 56.8805C43.8005 57.1905 44.9315 58.1205 45.0735 58.9805C45.1205 59.2605 45.0945 60.9006 45.0945 59.8406C45.0945 55.5806 52.0985 52.5305 55.3205 53.0005C59.5125 53.6105 65.9035 58.8906 60.9735 63.4406C60.0915 64.2506 58.0615 65.8206 56.9085 65.9006C56.8385 65.9106 58.4855 66.2306 59.1105 66.6506C68.4675 72.8106 65.6865 90.1306 55.3845 93.3106C54.0705 93.7206 52.9285 93.9406 51.5735 93.9406C51.0795 93.9406 52.0425 93.5006 52.3355 93.5206C54.1725 93.6406 52.3405 95.7506 51.5735 96.0306" stroke="#00F051" stroke-width="8.46953" stroke-linecap="round"/>
<path d="M81.9465 153.12C81.5245 144.2 80.7625 135.92 77.6865 127.62C76.4095 124.17 74.9295 121.151 74.0725 117.571C73.0715 113.381 73.0025 109.301 72.7965 104.951C72.6025 100.831 73.8255 97.0306 74.5245 93.0806C75.0565 90.0706 75.6605 86.9405 76.3845 83.9905C77.6705 78.7505 79.4215 73.8605 80.3985 68.4805C81.2635 63.7205 80.1445 58.6505 81.2775 53.8905C82.0805 50.5205 84.1735 47.8505 85.2195 44.9205" stroke="#00F051" stroke-width="8.46953" stroke-linecap="round"/>
<path d="M86.6337 45.8206C87.4997 46.0106 88.4057 46.7706 89.3017 47.0706C91.2527 47.7306 93.3507 47.9105 95.3787 47.9105C98.8377 47.9105 102.665 48.0305 103.001 43.0505C103.083 41.8405 103.022 40.6005 103.022 39.3805C103.022 39.2605 103.193 39.5206 103.276 39.5906C104.342 40.4406 105.438 41.0905 106.664 41.6305C110.567 43.3605 114.99 43.9705 119.177 44.1205C120.914 44.1905 123.535 44.6706 124.66 42.7006C126.168 40.0706 125.6 34.8505 125.423 31.9205C125.165 27.6505 124.181 22.8406 121.23 19.8106C119.258 17.7806 117.579 16.8306 115.006 16.2006C114.775 16.1506 113.26 16.3005 113.905 16.5105C114.448 16.6805 114.836 16.5305 114.836 15.9005C114.836 13.9905 111.323 11.6006 110.221 10.4406C106.965 7.01056 99.0627 2.18053 95.1027 7.09053C94.0797 8.36053 93.1427 10.6006 92.8167 12.2506C92.7507 12.5806 92.9117 14.8906 93.0917 14.2006C94.0847 10.3906 86.3487 6.47053 83.7757 5.91053C78.0487 4.65053 75.4997 8.12054 73.5917 13.7905C72.9917 15.5705 72.1357 19.4405 73.4007 21.1105C74.7077 22.8305 77.4117 23.2505 79.3077 23.5505C79.5647 23.5905 82.1287 23.6405 81.1287 23.6405C79.3007 23.6405 77.4487 23.5405 75.6237 23.6705C72.4097 23.8905 68.7217 27.7505 68.7217 31.4105C68.7217 35.9805 71.6997 38.9305 74.7347 41.6305C78.0787 44.6205 82.9297 44.1505 87.0147 44.1505" stroke="#00F051" stroke-width="8.46953" stroke-linecap="round"/>
<path d="M79.4146 154.931C73.7106 151.351 67.6066 150.411 61.0926 149.591C55.0866 148.831 49.1606 147.571 43.3026 146.051C40.2498 145.261 37.7123 143.381 35.1846 142.061" stroke="#00F051" stroke-width="8.46953" stroke-linecap="round"/>
<path d="M30.5742 143.391C30.5742 144.201 31.038 146.931 30.4919 147.701C29.9145 148.521 27.9626 148.561 27.1172 148.631C25.0857 148.801 22.8015 148.881 20.7999 148.431C20.3851 148.331 19.0841 148.191 18.9171 147.551C18.7827 147.031 20.0152 147.26 19.8122 147.99C19.488 149.14 17.9555 149.431 17.0651 149.681C14.8476 150.311 11.8389 150.521 9.68808 149.561C6.41938 148.091 4.53478 144.071 5.09928 140.321C5.35258 138.631 6.40848 137.721 7.67148 136.931C8.11938 136.651 9.67918 136.48 9.16338 136.48C8.54548 136.48 8.33888 135.981 8.06248 135.401C6.79848 132.741 6.51548 129.801 6.54998 126.821C6.58618 123.701 7.92248 113.641 12.9599 116.281C13.5458 116.581 17.6692 119.191 16.6433 120.571C15.7893 121.721 15.3225 119.711 15.4086 119.071C15.8245 115.991 20.2488 115.271 22.4255 115.341C24.5409 115.401 28.1012 117.001 26.0471 119.801C25.116 121.071 23.8823 121.881 22.693 122.811C22.1612 123.221 22.2654 122.861 22.5696 122.451C24.4507 119.901 29.4301 118.071 32.0558 120.171C35.1252 122.631 36.1007 127.91 35.7288 131.86C35.483 134.46 33.5078 137.851 31.5002 139.321" stroke="#00F051" stroke-width="8.46953" stroke-linecap="round"/>
<path d="M82.8147 176.411C81.9537 176.291 81.3887 152.13 82.3197 150.73C86.3037 144.74 94.0637 142.24 100.299 140.12C111.16 136.43 122.266 134.481 133.346 131.691C136.551 130.891 139.746 129.901 142.826 128.651C143.846 128.241 144.943 127.71 145.72 126.87" stroke="#00F051" stroke-width="8.46953" stroke-linecap="round"/>
<path d="M145.719 126.881C144.233 126.711 143.566 125.061 143.242 123.641C142.5 120.381 141.607 115.431 143.031 112.301C144.229 109.671 147.547 109.921 149.783 109.921C150.756 109.921 149.693 109.951 149.346 109.901C148.451 109.771 147.797 109.141 147.338 108.321C145.79 105.531 146.86 102.261 149.217 100.461C152.466 97.9806 157.257 99.6005 160.033 102.021C160.594 102.511 161.99 104.391 160.163 103.821C159.602 103.641 161.135 103.221 161.183 103.221C163.297 103.041 164.908 103.851 166.542 105.331C168.727 107.311 171.593 112.081 169.327 115.111C168.715 115.931 167.742 116.451 166.834 116.781C166.669 116.841 165.312 116.991 165.425 117.121C168.467 120.461 170.521 124.731 171.886 129.221C172.989 132.861 170.312 133.841 167.384 134.561C166.157 134.861 164.925 134.881 163.676 134.881C163.035 134.881 163.708 135.551 163.952 136.021C165.296 138.571 165.396 141.331 162.43 142.081C157.854 143.241 154.275 143.001 150.966 138.971C148.722 136.231 147.314 133.101 146.011 129.761" stroke="#00F051" stroke-width="8.46953" stroke-linecap="round"/>
<path d="M97.2425 28.9305C96.8845 28.8805 97.1455 28.7605 97.2425 28.5605" stroke="#00F051" stroke-width="8.46953" stroke-linecap="round"/>
<path d="M108.899 88.9706C108.54 88.9206 108.801 88.8005 108.899 88.6105" stroke="#00F051" stroke-width="8.46953" stroke-linecap="round"/>
<path d="M45.5843 79.5305C45.2263 79.4805 45.4873 79.3605 45.5843 79.1705" stroke="#00F051" stroke-width="8.46953" stroke-linecap="round"/>
<path d="M20.403 134.281C20.0445 134.231 20.3054 134.111 20.403 133.911" stroke="#00F051" stroke-width="8.46953" stroke-linecap="round"/>
<path d="M157.206 122.87C156.848 122.82 157.109 122.7 157.206 122.51" stroke="#00F051" stroke-width="8.46953" stroke-linecap="round"/>
</svg>
