<svg width="108" height="209" viewBox="0 0 108 209" fill="none" xmlns="http://www.w3.org/2000/svg">
<path d="M31.9772 48.9464C28.7322 48.9464 24.8702 49.5863 21.7072 48.8863C18.0712 48.0763 15.9152 39.9863 14.9872 37.0963C13.4082 32.1763 13.7562 25.2465 16.9212 21.0265C20.1612 16.7065 26.9692 16.6764 31.6602 18.4564C34.9442 19.7064 37.0072 22.6064 38.8242 25.4264C39.9302 27.1564 39.6432 28.3564 38.9502 25.2364C38.2752 22.1964 38.4482 17.2664 39.4892 14.4664C42.1492 7.31642 48.0462 6.0963 54.8312 5.3363C61.7652 4.5463 67.2722 4.64632 70.7752 11.3563C72.9572 15.5363 70.9582 17.1864 67.3202 18.4564C66.3932 18.7764 62.6922 20.4264 62.7872 20.4264C66.3752 20.4264 68.6641 16.9164 71.4721 15.1564C77.3431 11.4864 87.0062 7.78629 94.1042 9.07629C96.9902 9.59629 100.208 15.1665 101.236 17.5365C102.003 19.3065 103.887 23.2564 102.155 24.9864C99.6412 27.4964 92.3872 26.1263 89.1592 26.1263C87.9042 26.1263 82.0942 25.4063 83.0732 25.5863C87.6662 26.4263 91.1362 32.0563 92.7732 35.8263C93.6632 37.8763 98.3262 48.1463 96.1012 50.3763C93.6712 52.8063 87.8122 52.3763 84.7532 52.3763C79.7242 52.3763 77.3872 51.8863 74.3252 47.8063C71.4912 44.0263 74.5182 51.4765 74.6422 52.7565C75.2002 58.5265 76.3102 67.9663 73.0252 73.1063C71.5692 75.3763 68.1402 75.8264 65.7662 76.4664C61.4742 77.6064 57.0582 78.3763 52.6122 78.5863C47.8852 78.8163 46.6762 76.9664 45.7972 72.4664C45.3732 70.3064 45.6701 63.6363 45.6701 65.8463C45.6701 68.5663 43.3022 71.4863 41.5502 73.2963C35.2802 79.7563 28.3842 88.4063 18.8542 89.5863C14.3702 90.1363 10.3062 90.6663 7.44316 86.5763C5.33516 83.5663 4.98118 79.8963 5.19218 76.3063C5.49618 71.1463 9.5542 67.3064 13.0222 63.9064C18.2222 58.8164 24.3282 52.7765 30.8362 49.5165" stroke="#00F051" stroke-width="8.46953" stroke-linecap="round"/>
<path d="M51.9665 34.3762C48.0775 34.7662 45.9535 42.5963 50.2365 43.7563C54.3765 44.8863 58.9855 44.8463 61.7705 41.1663C64.2145 37.9363 61.1975 38.3662 58.7545 38.3662" stroke="#00F051" stroke-width="8.46953" stroke-linecap="round"/>
<path d="M48.7715 78.6963C48.7715 96.2563 48.8315 113.726 49.6585 131.266C50.1475 141.636 50.7685 151.856 50.7685 162.236C50.7685 168.216 49.9695 174.136 49.9695 180.116C49.9695 184.516 50.3685 188.806 50.3685 193.136C50.3685 196.996 48.7715 200.686 48.7715 204.476" stroke="#00F051" stroke-width="8.46953" stroke-linecap="round"/>
<path d="M51.9663 141.386C51.9663 136.656 52.0763 132.716 53.5853 128.186C55.8413 121.416 60.8063 115.176 65.3643 109.846C68.0913 106.646 70.6463 104.326 74.9913 104.256C80.3733 104.156 84.3763 104.856 87.6573 109.446C91.4043 114.676 92.4813 121.596 89.6323 127.636C84.9083 137.646 71.6113 138.686 62.9243 143.386C59.2463 145.366 56.5813 146.976 52.3653 146.976" stroke="#00F051" stroke-width="8.46953" stroke-linecap="round"/>
<path d="M46.7752 148.966C46.4092 137.646 35.8542 124.346 24.0602 123.836C19.0212 123.616 15.3522 125.286 13.6792 130.426C11.9672 135.686 12.5192 142.036 15.2762 146.776C20.8522 156.356 32.5942 158.086 42.6932 156.066C46.2892 155.346 49.7572 157.026 51.1672 160.546" stroke="#00F051" stroke-width="8.46953" stroke-linecap="round"/>
</svg>
