<svg width="190" height="211" viewBox="0 0 190 211" fill="none" xmlns="http://www.w3.org/2000/svg">
<g clip-path="url(#clip0_107_3343)">
<path d="M77.942 206.41C77.942 187.5 76.162 168.71 76.162 149.84C76.162 143.11 75.002 135.16 76.552 128.58C78.712 119.43 82.052 110.85 84.562 101.88C85.792 97.5004 86.8321 93.5904 88.6221 89.3704C90.2521 85.5304 93.392 80.6703 93.912 76.5203C94.292 73.4603 96.332 71.5803 97.522 68.9003C97.892 68.0603 99.302 64.1003 99.302 64.9003" stroke="#339252" stroke-width="8.46953" stroke-linecap="round"/>
<path d="M99.3021 64.9003C93.5121 64.9003 89.5122 58.2205 89.5122 52.8805C89.5122 48.1405 91.3722 44.1304 93.9622 40.1804C96.3522 36.5104 97.2321 31.7304 100.192 28.4104C106.742 21.0404 111.242 2.33641 124.662 5.31941C129.012 6.28541 134.902 11.4904 134.902 15.9504C134.902 25.8004 125.422 37.6405 120.162 45.7605C116.702 51.1105 114.322 58.5204 109.982 63.1204C107.372 65.8804 98.9422 69.5303 96.6322 64.9003" stroke="#339252" stroke-width="8.46953" stroke-linecap="round"/>
<path d="M102.022 200.77C102.022 189.18 101.752 177.82 103.572 166.35C104.842 158.39 108.942 150.36 112.862 143.4C118.152 133.99 119.692 123.28 123.002 113.37" stroke="#339252" stroke-width="8.46953" stroke-linecap="round"/>
<path d="M125.102 114.06C120.842 114.06 115.792 112.41 114.062 107.93C111.322 100.79 116.372 95.4904 118.262 88.8904C119.822 83.4404 122.352 77.7104 124.242 72.2604C126.052 67.0404 128.422 65.1104 134.032 65.1104C138.202 65.1104 142.692 64.0904 144.832 68.6104C146.052 71.1904 145.372 75.0904 145.372 77.8604C145.372 82.8204 145.112 87.3504 144.132 92.2304C143.372 96.0404 143.082 100.06 141.722 103.73C141.022 105.64 140.362 109.32 138.382 110.41C133.492 113.13 128.742 112.67 123.002 112.67" stroke="#339252" stroke-width="8.46953" stroke-linecap="round"/>
<path d="M57.272 204.27C57.272 184.41 59.382 162.91 54.162 143.51C53.552 141.24 50.8321 114.17 48.8721 114.06C45.5721 113.88 33.5621 115.95 32.7521 112.32C30.3721 101.6 28.9521 90.4804 27.3521 79.4904C26.2321 71.7404 23.142 59.0104 33.142 56.3704C36.062 55.6104 40.522 55.0804 42.042 58.1204C44.022 62.0804 46.3721 66.7703 47.6321 71.0203C48.7621 74.8303 50.512 79.0904 52.062 82.6404C54.702 88.6804 56.082 95.6004 57.272 102.1C57.732 104.67 59.282 110.42 57.272 112.67C54.452 115.81 50.592 116.74 46.782 118.26" stroke="#339252" stroke-width="8.46953" stroke-linecap="round"/>
<path d="M30.6924 204.27C30.6924 198.53 30.6924 192.8 30.6924 187.06C30.6924 181.87 29.0525 177.07 27.7425 172.1C27.3925 170.77 25.4125 161.35 24.0125 160.96C22.5425 160.54 18.0325 161.22 16.7125 161.77C8.33246 165.3 -0.527506 116.16 9.37249 116.16C10.7525 116.16 14.5424 115.49 15.1524 117.02C19.5124 127.91 43.0925 164.41 21.6025 164.41" stroke="#339252" stroke-width="8.46953" stroke-linecap="round"/>
<path d="M121.252 203.4C121.252 194.66 120.252 186.35 124.462 178.42C127.742 172.23 131.632 165.87 135.952 160.35C138.652 156.9 141.362 153.46 144.132 150.07C145.152 148.82 146.932 147.56 147.612 146.2" stroke="#339252" stroke-width="8.46953" stroke-linecap="round"/>
<path d="M147.612 146.7C147.612 142.9 142.792 140.04 142.642 135.87C142.492 131.7 145.152 129.61 147.222 126.2C149.412 122.61 152.472 119.8 154.962 116.47C160.012 109.74 164.382 103.48 171.872 99.3404C174.132 98.0904 177.462 97.2104 179.942 98.4504C181.192 99.0804 183.852 100.4 184.422 101.69C185.062 103.13 185.412 103.37 185.412 105.22C185.412 109.31 184.032 112.02 182.152 115.64C179.602 120.58 176.282 125.22 173.482 130.04C171.782 132.95 169.812 136.09 167.732 138.74C165.332 141.8 162.292 147.7 158.062 147.7C153.232 147.7 149.002 145.6 145.622 142.22" stroke="#339252" stroke-width="8.46953" stroke-linecap="round"/>
<path d="M76.9619 138.1C76.9619 133.28 79.3019 128.92 83.7819 126.68C87.5019 124.82 94.2619 125.9 93.4019 131.48C92.6619 136.28 85.3719 142.52 80.5719 142.52" stroke="#339252" stroke-width="8.46953" stroke-linecap="round"/>
<path d="M72.9424 157.78C71.1424 157.78 68.9724 157.22 67.3224 156.49C65.7124 155.77 66.1124 158.16 66.1124 159.19C66.1124 163.94 69.8324 166.22 74.1524 166.22" stroke="#339252" stroke-width="8.46953" stroke-linecap="round"/>
<path d="M115.302 143.48C117.012 140.76 119.542 140.26 122.512 139.92C124.032 139.75 125.302 139.77 126.322 140.97C127.572 142.43 128.012 144.22 128.112 146.19C128.182 147.43 128.032 149.26 126.922 150.1C125.432 151.22 122.952 151.831 121.152 152.261C120.502 152.411 119.682 152.441 119.002 152.491C117.222 152.621 115.482 153.1 113.692 153.1" stroke="#339252" stroke-width="8.46953" stroke-linecap="round"/>
<path d="M100.272 172.34C99.0824 172.34 97.7225 172.63 96.8625 171.63C95.3725 169.89 94.5625 167.2 94.4725 164.96C94.3825 162.82 94.1825 161.11 96.2125 159.96C97.1825 159.41 99.0325 159.22 99.4725 160.52" stroke="#339252" stroke-width="8.46953" stroke-linecap="round"/>
<path d="M131.532 169.73C132.062 167.8 135.252 166.39 136.962 166.04C139.452 165.52 141.582 164.92 144.152 164.92C147.422 164.92 149.772 167.7 149.772 170.84C149.772 174.56 145.342 176.37 142.402 177.15C137.932 178.33 132.912 177.75 128.322 177.75" stroke="#339252" stroke-width="8.46953" stroke-linecap="round"/>
<path d="M29.7722 182.85C28.6622 182.85 27.4422 181.95 26.5222 181.41C24.9822 180.5 23.0423 179.49 21.2923 179.09C18.2023 178.38 17.2022 181.13 16.5322 183.54C16.0722 185.2 18.3022 186.55 19.5222 187.27C21.3022 188.32 23.3423 188.88 25.0523 190.06C25.8123 190.58 27.7123 191.37 28.1023 192.15" stroke="#339252" stroke-width="8.46953" stroke-linecap="round"/>
<path d="M15.1924 139.94V139.66" stroke="#339252" stroke-width="8.46953" stroke-linecap="round"/>
<path d="M20.2324 150.58V151.42" stroke="#339252" stroke-width="8.46953" stroke-linecap="round"/>
<path d="M36.1924 71.9204H36.7524" stroke="#339252" stroke-width="8.46953" stroke-linecap="round"/>
<path d="M37.8721 91.2305C38.0721 91.0505 38.192 91.0304 38.432 90.9504" stroke="#339252" stroke-width="8.46953" stroke-linecap="round"/>
<path d="M46.2718 100.47C46.0418 100.47 46.4119 100.48 46.5519 100.75" stroke="#339252" stroke-width="8.46953" stroke-linecap="round"/>
<path d="M100.042 50.0303C100.072 50.2503 100.122 50.1903 100.282 50.2703" stroke="#339252" stroke-width="8.46953" stroke-linecap="round"/>
<path d="M123.372 20.1304V20.8604" stroke="#339252" stroke-width="8.46953" stroke-linecap="round"/>
<path d="M108.062 37.1404H108.302" stroke="#339252" stroke-width="8.46953" stroke-linecap="round"/>
<path d="M133.292 78.0404C133.292 77.7804 133.332 77.6705 133.432 77.4705" stroke="#339252" stroke-width="8.46953" stroke-linecap="round"/>
<path d="M127.592 96.1304H128.162" stroke="#339252" stroke-width="8.46953" stroke-linecap="round"/>
<path d="M154.382 135.47C154.592 135.44 154.782 135.3 154.952 135.18" stroke="#339252" stroke-width="8.46953" stroke-linecap="round"/>
<path d="M168.352 116.37C168.632 116.37 168.832 116.24 169.062 116.09" stroke="#339252" stroke-width="8.46953" stroke-linecap="round"/>
</g>
<defs>
<clipPath id="clip0_107_3343">
<rect width="190" height="211" fill="white"/>
</clipPath>
</defs>
</svg>
