<svg width="213" height="124" viewBox="0 0 213 124" fill="none" xmlns="http://www.w3.org/2000/svg">
<g clip-path="url(#clip0_107_3370)">
<path d="M28.3039 113.757C28.1039 115.339 23.3838 114.531 22.2738 114.531C18.8738 114.531 16.6539 113.432 14.1939 110.918C10.4039 107.046 7.79387 100.483 6.19387 95.349C5.47387 93.045 4.55392 90.213 5.24392 87.78C6.83392 82.24 17.4138 79.019 21.5038 82.963C22.7238 84.138 24.8539 86 21.9339 85.887C19.1239 85.779 18.9338 82.676 18.4038 80.468C16.1638 70.973 20.5839 64.913 29.0739 61.114C36.5539 57.769 38.5938 63.701 40.5138 69.458C41.3438 71.961 40.6839 64.183 40.6839 61.544C40.6839 56.383 40.5239 53.333 45.0739 50.104C50.4139 46.316 58.1838 45.509 64.5138 46.749C67.1238 47.26 73.0739 50.221 73.2039 53.545C73.3039 56.254 72.8739 57.337 70.8739 59.136C70.2439 59.708 67.1238 61.524 67.0038 59.566C66.8338 56.579 71.0938 54.245 73.0338 52.598C77.8038 48.536 82.5439 47.244 88.8539 47.179C94.5439 47.121 113.034 51.131 108.644 60.942C107.524 63.435 102.664 64.59 100.294 65.587C99.1638 66.064 104.094 62.923 105.284 62.49C117.214 58.169 125.074 66.206 125.074 78.146C125.074 81.602 125.064 84.265 121.374 85.715C120.364 86.109 116.814 86.661 117.324 86.661C127.644 86.661 139.004 92.582 139.004 104.295C139.004 111.306 121.224 110.66 116.554 110.66" stroke="#339252" stroke-width="8.46953" stroke-linecap="round"/>
<path d="M58.4941 45.6329C58.4941 33.4419 57.864 22.7129 66.064 12.6889C71.664 5.84594 83.754 1.45297 90.534 8.81797C92.304 10.747 94.044 13.6409 94.704 16.2149C95.364 18.7809 94.4441 19.519 96.4741 16.602C99.8641 11.721 110.784 2.94692 117.154 8.04392C119.624 10.0159 124.114 21.6859 119.654 23.7849C117.944 24.5899 119.724 20.4689 120.124 20.0859C124.884 15.5809 130.634 13.8929 137.074 13.8929C144.674 13.8929 153.714 17.885 153.714 26.581C153.714 30.482 147.134 32.5489 152.854 29.8059C157.534 27.5619 186.574 18.9809 188.374 28.1719C189.264 32.6789 187.054 37.12 184.334 40.558C183.044 42.197 179.924 43.7099 179.004 45.2459C178.684 45.7779 181.604 45.6329 181.624 45.6329C184.364 45.6329 187.124 45.7329 189.754 46.5799C195.384 48.3919 196.744 52.1089 197.024 57.5039C197.304 63.0689 194.134 67.4379 190.104 71.0089C188.214 72.6819 186.134 74.0829 183.994 75.3959C183.314 75.8109 181.174 76.348 181.924 76.6C186.024 77.966 190.954 76.547 195.174 78.277C199.394 80.01 202.734 82.593 203.864 87.094C204.344 89.006 204.054 90.4789 202.184 91.3089C200.944 91.8589 204.714 95.211 205.194 95.954C207.164 99.013 203.324 103.416 205.584 103.738C214.324 104.988 199.644 117.891 197.844 119.178" stroke="#339252" stroke-width="8.46953" stroke-linecap="round"/>
<path d="M39.4137 89.457C39.4137 89.161 39.3238 91.238 39.4638 91.668C40.1338 93.847 45.5037 94.95 47.4337 95.063C50.1937 95.226 50.9238 94.285 51.4938 91.713C51.7138 90.738 53.7937 94.697 54.2937 95.287C56.9637 98.437 65.0137 103.309 65.5437 96.381C65.6237 95.351 72.9637 99.861 74.0837 100.223C76.1537 100.892 79.4237 101.755 81.5837 100.871C82.8637 100.346 83.6737 98.574 84.4437 97.498" stroke="#339252" stroke-width="8.46953" stroke-linecap="round"/>
<path d="M135.914 51.6599C135.914 56.0589 144.694 56.6909 146.674 53.2689C147.274 52.2309 147.364 53.4029 147.884 54.1839C149.454 56.5729 151.024 59.0779 153.694 60.3269C158.234 62.4509 163.064 60.5459 164.454 55.6809" stroke="#339252" stroke-width="8.46953" stroke-linecap="round"/>
<path d="M156.014 95.8889C156.014 97.2479 155.874 98.1899 157.444 98.6139C160.604 99.4689 164.654 99.3989 167.224 97.1169C168.514 95.9689 171.374 100.084 172.834 100.959C176.524 103.176 182.464 104.775 186.564 102.724" stroke="#339252" stroke-width="8.46953" stroke-linecap="round"/>
</g>
<defs>
<clipPath id="clip0_107_3370">
<rect width="213" height="124" fill="white"/>
</clipPath>
</defs>
</svg>
