<svg width="164" height="232" viewBox="0 0 164 232" fill="none" xmlns="http://www.w3.org/2000/svg">
<path d="M73.3784 80.891C78.0984 90.325 78.4984 101.136 78.4984 111.581C78.4984 132.904 79.1983 154.154 74.7583 175.135C73.3583 181.768 70.0383 187.945 67.1683 194.024C66.5983 195.216 66.7084 195.888 65.6184 196.787C63.9984 198.121 62.4383 199.445 61.0283 201.011C58.4683 203.864 55.9783 206.878 53.2683 209.583C49.6583 213.197 45.9184 216.804 42.8484 220.896C41.3584 222.882 40.3483 225.129 39.0083 227.131" stroke="#00F051" stroke-width="8.46953" stroke-linecap="round"/>
<path d="M101.598 86.983C102.888 89.205 103.658 91.688 104.288 94.188C105.838 100.367 107.328 107.161 107.518 113.523C107.818 123.067 108.868 132.639 108.998 142.18C109.068 146.887 108.998 151.599 108.998 156.305C108.998 161.446 108.258 166.532 108.258 171.652C108.258 178.545 107.218 185.204 106.768 192.025C106.558 195.027 105.958 198.143 105.308 201.082C104.608 204.239 104.248 207.645 103.278 210.709C101.478 216.419 98.5682 222.062 95.1582 227.012" stroke="#00F051" stroke-width="8.46953" stroke-linecap="round"/>
<path d="M82.4883 97.8309C87.4283 96.8499 92.1982 96.7009 97.1682 96.7009" stroke="#00F051" stroke-width="8.46953" stroke-linecap="round"/>
<path d="M82.4883 124.932C87.4283 125.394 92.0282 126.161 96.5182 128.108C98.7582 129.081 105.898 130.578 103.438 130.578" stroke="#00F051" stroke-width="8.46953" stroke-linecap="round"/>
<path d="M80.7983 159.94C85.6083 162.16 90.6183 163.924 95.3083 166.382C97.7383 167.649 100.178 168.848 102.818 169.538" stroke="#00F051" stroke-width="8.46953" stroke-linecap="round"/>
<path d="M70.6284 192.123C76.2084 197.648 81.3584 203.868 87.2484 209.051C89.7784 211.275 92.7783 214.546 96.0383 215.838" stroke="#00F051" stroke-width="8.46953" stroke-linecap="round"/>
<path d="M73.0285 80.1211C68.9485 80.5521 65.0685 80.887 62.1385 83.98C59.3885 86.885 57.4885 90.3871 55.4085 93.8591C51.4785 100.456 47.2086 107.443 44.7386 114.852C43.9086 117.36 42.6586 120.712 41.0886 122.841C40.3486 123.841 38.9586 125.394 38.8186 126.661C38.3886 130.808 35.9585 122.666 35.5285 121.104C31.9685 107.942 33.8286 78.9461 45.6886 71.7851C45.9586 71.6221 48.3985 70.462 48.3985 70.396C48.3985 70.378 41.8186 69.6861 41.4886 69.6631C22.9686 68.3591 16.8185 84.571 7.53855 98.722C6.77855 99.876 6.09864 101.978 5.12864 102.889C4.76864 103.228 5.27854 100.492 5.27854 99.8791C5.27854 96.7661 5.27854 93.6531 5.27854 90.5401C5.27854 84.6211 6.5886 78.5541 6.5886 72.8271C6.5886 65.2631 17.8986 59.6941 23.4386 57.8931C31.7686 55.1871 40.6486 53.7251 49.3486 53.7251C51.6386 53.7251 54.6786 54.3501 56.8786 53.6861C57.6086 53.4651 55.4885 51.4271 55.2685 51.1011C52.7785 47.4511 47.1886 46.462 43.4286 45.042C36.7886 42.541 27.6385 40.2351 20.4085 39.8321C17.8885 39.6931 15.6886 39.1381 13.1686 39.1381C11.9786 39.1381 8.5886 39.7981 9.5886 39.0991C10.6986 38.3181 11.8386 36.3751 12.8386 35.3171C21.0386 26.6581 44.1485 28.4631 54.2785 30.8411C55.3685 31.0971 61.2386 32.166 59.8686 32.886" stroke="#00F051" stroke-width="8.46953" stroke-linecap="round"/>
<path d="M97.1685 85.558C105.848 81.659 151.908 79.399 157.538 93.271C160.008 99.337 159.159 88.918 158.859 87.082C157.789 80.414 156.388 77.79 151.768 75.084C140.628 68.549 123.798 68.418 111.648 68.418C108.998 68.418 105.348 69.318 102.798 68.371C102.678 68.326 106.418 60.015 107.038 58.61C108.508 55.258 114.718 53.69 117.198 52.611C119.408 51.652 123.678 51.278 125.788 51.278C131.608 51.278 137.098 50.14 142.708 50.421C144.318 50.502 145.278 52.345 145.188 50.421C145.028 46.815 140.968 44.061 138.908 42.042C126.968 30.376 108.939 37.476 95.8585 38.423C94.9285 38.49 88.6185 42.507 89.7885 40.804C93.7185 35.121 94.4785 26.219 98.1985 19.998C99.9185 17.108 102.048 14.657 103.418 11.428C104.718 8.39604 108.519 5 104.369 5C85.0085 5 77.0585 28.417 60.9185 33.087" stroke="#00F051" stroke-width="8.46953" stroke-linecap="round"/>
</svg>
