<svg width="199" height="138" viewBox="0 0 199 138" fill="none" xmlns="http://www.w3.org/2000/svg">
<path d="M36.6299 58.7848V128.275" stroke="#00F051" stroke-width="8.46953" stroke-linecap="round"/>
<path d="M35.7198 55.1748C28.4098 55.1748 21.0498 57.5048 13.6598 55.1748C10.0398 54.0248 5.35978 52.0747 5.08978 47.7547C4.65978 40.9347 5.66985 33.6348 10.4098 28.3048C11.4698 27.1048 13.7599 26.6748 15.1699 27.5948C16.2099 28.2748 18.4998 31.9948 16.3198 30.3048C11.5098 26.5648 20.9299 14.6848 22.7899 11.8548C28.6999 2.8848 39.3799 3.2548 47.0599 9.8548C49.7499 12.1648 52.9698 16.5648 49.2598 19.4748C48.8398 19.8148 44.8898 22.1347 45.8498 19.7747C49.8398 9.98473 79.2498 8.76471 78.0898 22.6347C77.7198 27.0447 73.9798 29.1248 70.2198 30.6048C67.7298 31.5848 73.5298 35.1648 74.4798 36.3748C77.5898 40.3148 81.9598 48.3647 75.1298 50.6647C65.7498 53.8147 54.6098 54.2747 44.7498 54.2747" stroke="#00F051" stroke-width="8.46953" stroke-linecap="round"/>
<path d="M84.7198 125.095C84.7198 117.415 84.7198 109.735 84.7198 102.055C84.7198 100.965 84.9298 91.1548 83.8298 92.2548C81.8598 94.2248 80.6698 95.8149 77.8198 96.9649C73.7898 98.6049 64.5898 99.5549 60.8898 96.8249C55.6998 92.9949 60.9598 78.3948 67.2098 78.3948C68.6898 78.3948 68.3998 80.2449 66.8998 80.2449C63.4198 80.2449 61.6998 77.1048 61.0998 74.0248C59.5098 65.8748 65.6698 61.9149 72.8398 59.4849C74.5398 58.9149 88.4099 55.1949 88.4099 59.2149C88.4099 60.8049 85.6398 62.0848 85.3698 59.9348C84.4098 52.2448 103.26 49.8649 107.73 49.3149C110.61 48.9649 114.13 48.3349 115.78 51.3649C117.23 54.0349 116.52 57.2949 115.17 59.8249C114.38 61.3149 108.54 67.1149 109.71 67.4749C113.14 68.5249 124.34 78.3749 120.42 82.8349C116.64 87.1449 106.55 88.1548 101.38 89.0448C95.8498 90.0048 90.3098 90.0749 84.7198 90.0749" stroke="#00F051" stroke-width="8.46953" stroke-linecap="round"/>
<path d="M111.14 42.1448C111.14 35.2748 107.27 29.3248 111.21 22.5248C115.7 14.7548 135 13.7248 138.51 23.1048C139.14 24.7648 139.06 27.7849 137.08 28.4949C136.55 28.6849 136.2 28.3947 136.6 27.8847C138.14 25.9047 141.34 25.1649 143.63 24.7449C146.94 24.1349 153.31 23.2448 155.24 26.8948C157.17 30.5348 155.97 35.5448 153.4 38.4648C151.21 40.9448 148.69 41.6249 145.68 42.6249C144.95 42.8749 145.36 42.7648 145.96 42.7648C148.54 42.7648 150.29 43.0248 152.34 44.8148C157.51 49.3448 159.05 54.6048 158.31 61.3648C157.52 68.5548 149.03 73.7648 142.34 74.5748C142.3 74.5848 136.13 74.9049 137.7 73.6249C140.43 71.3849 143.77 78.9149 144.25 80.2449C145.65 84.1349 146.78 86.8148 141.93 86.9648C136.68 87.1348 130.57 87.8348 125.88 85.1548" stroke="#00F051" stroke-width="8.46953" stroke-linecap="round"/>
<path d="M163.37 56.8947C163.37 43.5547 188.92 48.2348 191.22 58.7348C192.18 63.1448 186.16 65.1948 182.82 65.9748C181.35 66.3148 183.21 66.4848 184.05 66.9948C188.14 69.4648 191.01 73.2348 192.93 77.5748C194.05 80.1348 194.83 83.4647 194.56 86.2847C194.11 91.0947 187.15 91.8548 183.54 92.4548C178.38 93.3148 173.16 93.7547 167.94 93.7547C166.44 93.7547 171.19 94.9247 172 95.3947C174.18 96.6447 185.11 105.475 177.7 105.425C167.6 105.365 157.57 103.575 148.35 99.3548C141.19 96.0748 137.02 93.6147 134.49 86.3847" stroke="#00F051" stroke-width="8.46953" stroke-linecap="round"/>
<path d="M163.36 106.665V129.395" stroke="#00F051" stroke-width="8.46953" stroke-linecap="round"/>
<path d="M125.27 89.4548V133.085" stroke="#00F051" stroke-width="8.46953" stroke-linecap="round"/>
<path d="M39.25 39.0748C39.35 38.3348 39.87 38.1149 39.87 37.2349" stroke="#00F051" stroke-width="8.46953" stroke-linecap="round"/>
<path d="M90.5303 76.4348C90.6503 75.4948 91.6503 76.6447 91.9203 76.7747" stroke="#00F051" stroke-width="8.46953" stroke-linecap="round"/>
<path d="M129.66 54.6149V54.2748" stroke="#00F051" stroke-width="8.46953" stroke-linecap="round"/>
<path d="M164.64 77.8148C165.06 77.7648 165.18 77.4749 165.68 77.4749" stroke="#00F051" stroke-width="8.46953" stroke-linecap="round"/>
</svg>
