<svg width="25" height="24" viewBox="0 0 25 24" fill="none" xmlns="http://www.w3.org/2000/svg">
<path d="M21.9631 16.406C21.8774 16.4549 21.783 16.4863 21.6851 16.4986C21.5873 16.511 21.488 16.5038 21.3929 16.4777C21.2978 16.4516 21.2088 16.407 21.131 16.3464C21.0531 16.2858 20.988 16.2105 20.9393 16.1248L19.1581 13.0123C18.1225 13.7125 16.9802 14.24 15.7756 14.5741L16.3259 17.876C16.3421 17.9732 16.3391 18.0727 16.3168 18.1687C16.2946 18.2647 16.2537 18.3554 16.1964 18.4356C16.1391 18.5158 16.0666 18.5839 15.983 18.636C15.8993 18.6882 15.8062 18.7233 15.709 18.7395C15.669 18.746 15.6286 18.7495 15.5881 18.7498C15.4107 18.7495 15.2391 18.6863 15.1038 18.5715C14.9686 18.4567 14.8784 18.2976 14.8493 18.1226L14.3084 14.8807C13.1676 15.0395 12.0104 15.0395 10.8696 14.8807L10.3287 18.1226C10.2996 18.2979 10.2092 18.4573 10.0735 18.5721C9.93787 18.687 9.76584 18.75 9.58809 18.7498C9.54663 18.7496 9.50525 18.7462 9.46434 18.7395C9.36712 18.7233 9.27403 18.6882 9.19041 18.636C9.10678 18.5839 9.03425 18.5158 8.97696 18.4356C8.91967 18.3554 8.87874 18.2647 8.85652 18.1687C8.8343 18.0727 8.83122 17.9732 8.84746 17.876L9.40059 14.5741C8.19649 14.2389 7.05478 13.7105 6.01996 13.0095L4.24434 16.1248C4.14488 16.2981 3.98065 16.4248 3.78778 16.477C3.59492 16.5292 3.3892 16.5027 3.2159 16.4032C3.0426 16.3038 2.9159 16.1395 2.86368 15.9467C2.81147 15.7538 2.83801 15.5481 2.93746 15.3748L4.81246 12.0935C4.15387 11.5245 3.54826 10.897 3.00309 10.2185C2.9351 10.1426 2.88329 10.0536 2.85083 9.95704C2.81837 9.86045 2.80594 9.75824 2.81429 9.65668C2.82264 9.55512 2.8516 9.45632 2.89941 9.36632C2.94721 9.27633 3.01286 9.19701 3.09233 9.13323C3.17181 9.06944 3.26345 9.02252 3.36166 8.99533C3.45987 8.96815 3.56259 8.96126 3.66356 8.97509C3.76452 8.98892 3.86161 9.02318 3.94889 9.07578C4.03617 9.12838 4.11182 9.19821 4.17121 9.28102C5.72746 11.2066 8.44996 13.4998 12.5881 13.4998C16.7262 13.4998 19.4487 11.2038 21.005 9.28102C21.0637 9.19652 21.1392 9.125 21.2267 9.07092C21.3142 9.01684 21.412 8.98135 21.5138 8.96666C21.6157 8.95198 21.7194 8.9584 21.8187 8.98555C21.918 9.01269 22.0106 9.05997 22.0908 9.12443C22.171 9.1889 22.237 9.26919 22.2849 9.36029C22.3327 9.45139 22.3613 9.55137 22.3689 9.65399C22.3764 9.75661 22.3627 9.85969 22.3287 9.95681C22.2947 10.0539 22.2411 10.143 22.1712 10.2185C21.626 10.897 21.0204 11.5245 20.3618 12.0935L22.2368 15.3748C22.2872 15.4603 22.32 15.555 22.3335 15.6533C22.347 15.7516 22.3408 15.8517 22.3153 15.9476C22.2899 16.0435 22.2456 16.1334 22.1852 16.2121C22.1247 16.2908 22.0492 16.3567 21.9631 16.406Z" fill="black"/>
</svg>
